<mxfile host="Electron" modified="2023-05-26T02:33:36.005Z" agent="Mozilla/5.0 (Windows NT 10.0; Win64; x64) AppleWebKit/537.36 (KHTML, like Gecko) draw.io/21.2.8 Chrome/112.0.5615.165 Electron/24.2.0 Safari/537.36" etag="NOMMonEBiXpaL5acyZsw" version="21.2.8" type="device">
  <diagram name="Page-1" id="7oLeeqB4X83rpsUO6XK-">
    <mxGraphModel dx="6578" dy="3558" grid="0" gridSize="10" guides="1" tooltips="1" connect="1" arrows="1" fold="1" page="1" pageScale="1" pageWidth="827" pageHeight="1169" math="0" shadow="0">
      <root>
        <mxCell id="0" />
        <mxCell id="1" parent="0" />
        <mxCell id="MiLEQ-yQkrviwAs_aEzq-76" value="(MCU1)&lt;br&gt;app_start" style="text;html=1;strokeColor=none;fillColor=none;align=center;verticalAlign=middle;whiteSpace=wrap;rounded=0;fontSize=16;fontColor=#000000;fontFamily=Calibri;" parent="1" vertex="1">
          <mxGeometry x="-663" y="-737.0000000000002" width="170" height="30" as="geometry" />
        </mxCell>
        <mxCell id="lFIIQ00Y4gTMDogE_Xks-12" style="edgeStyle=none;curved=1;rounded=0;orthogonalLoop=1;jettySize=auto;html=1;entryX=0.5;entryY=0;entryDx=0;entryDy=0;entryPerimeter=0;fontSize=12;startSize=8;endSize=8;" parent="1" source="Cari82qWPhB8FJyJu9n--68" target="lFIIQ00Y4gTMDogE_Xks-1" edge="1">
          <mxGeometry relative="1" as="geometry" />
        </mxCell>
        <UserObject label="&lt;div style=&quot;font-size: 1px&quot;&gt;&lt;font style=&quot;font-size: 11.29px; direction: ltr; letter-spacing: 0px; line-height: 120%; opacity: 1;&quot;&gt;Start&lt;br&gt;&lt;/font&gt;&lt;/div&gt;" Function="EN_DIO_Error_T DIO_init(uint8_t pinNumber, EN_DIO_PORT_T portNumber, EN_DIO_DIRECTION_T direction);" tags="Flowchart" id="Cari82qWPhB8FJyJu9n--68">
          <mxCell style="verticalAlign=middle;align=center;overflow=width;vsdxID=30;fillColor=#dae8fc;shape=stencil(tVLREoIgEPwaHnEQxsl3s/9gEpSJwDko7e+DsEkze2l627vdu5uFRaxyHe8FosR5sCcxqMZ3iO0Rpcp0ApQPCLEasUpaEC3Yi2lS3fOojOhsr3HDmObyMtsVcYqS29Qh5FEfklwrM5OXeUa/yjkcAwfr7TDpiyTfXvjkMR+Vw2A998qaBac5tAKHU1hq3i4oNwjRr9ofvayt/+Rk+yX/4iWA159KpXWKxJx/z0Bopfyw+g4=);strokeColor=#6c8ebf;spacingTop=-1;spacingBottom=-1;spacingLeft=-1;spacingRight=-1;points=[[0.5,1,0],[0.5,0,0],[0,0.5,0],[1,0.5,0]];labelBackgroundColor=none;rounded=1;html=1;whiteSpace=wrap;fontFamily=Calibri;" parent="1" vertex="1">
            <mxGeometry x="-2171.75" y="-1084" width="101" height="38" as="geometry" />
          </mxCell>
        </UserObject>
        <mxCell id="MiLEQ-yQkrviwAs_aEzq-80" value="app_initialize&lt;br&gt;(MCU1 &amp;amp; MCU2)" style="text;html=1;strokeColor=none;fillColor=none;align=center;verticalAlign=middle;whiteSpace=wrap;rounded=0;fontSize=16;fontFamily=Calibri;" parent="1" vertex="1">
          <mxGeometry x="-2357.25" y="-1100" width="138" height="30" as="geometry" />
        </mxCell>
        <mxCell id="3IBphvjYudPTPOBFQOcQ-11" style="edgeStyle=orthogonalEdgeStyle;rounded=0;orthogonalLoop=1;jettySize=auto;html=1;entryX=0.5;entryY=0;entryDx=0;entryDy=0;entryPerimeter=0;" parent="1" source="lFIIQ00Y4gTMDogE_Xks-1" target="3IBphvjYudPTPOBFQOcQ-1" edge="1">
          <mxGeometry relative="1" as="geometry" />
        </mxCell>
        <UserObject label="&lt;div style=&quot;&quot;&gt;&lt;span style=&quot;font-size: 11.29px;&quot;&gt;Init app state = IDLE&lt;/span&gt;&lt;/div&gt;" Function="EN_DIO_Error_T DIO_toggle(uint8_t pinNumber, EN_DIO_PORT_T portNumber);  " tags="Flowchart" id="lFIIQ00Y4gTMDogE_Xks-1">
          <mxCell style="verticalAlign=middle;align=center;overflow=width;vsdxID=274;fillColor=#d5e8d4;shape=stencil(nZBLDoAgDERP0z3SIyjew0SURgSD+Lu9kMZoXLhwN9O+tukAlrNpJg1SzDH4QW/URgNYgZTkjA4UkwJUgGXng+6DX1zLfmoymdXo17xh5zmRJ6Q42BWCfc2oJfdAr+Yv+AP9Cb7OJ3H/2JG1HNGz/84klThPVCc=);strokeColor=#82b366;spacingTop=-1;spacingBottom=-1;spacingLeft=-1;spacingRight=-1;points=[[0,0.5,0],[1,0.5,0],[0.5,1,0],[0.5,0,0]];labelBackgroundColor=none;rounded=1;html=1;whiteSpace=wrap;fontFamily=Calibri;" parent="1" vertex="1">
            <mxGeometry x="-2175.25" y="-1023" width="108" height="31" as="geometry" />
          </mxCell>
        </UserObject>
        <UserObject label="&lt;div style=&quot;font-size: 1px&quot;&gt;&lt;font style=&quot;font-size: 11.29px; direction: ltr; letter-spacing: 0px; line-height: 120%; opacity: 1;&quot;&gt;End&lt;br&gt;&lt;/font&gt;&lt;/div&gt;" Function="EN_DIO_Error_T DIO_init(uint8_t pinNumber, EN_DIO_PORT_T portNumber, EN_DIO_DIRECTION_T direction);" tags="Flowchart" id="lFIIQ00Y4gTMDogE_Xks-2">
          <mxCell style="verticalAlign=middle;align=center;overflow=width;vsdxID=30;fillColor=#dae8fc;shape=stencil(tVLREoIgEPwaHnEQxsl3s/9gEpSJwDko7e+DsEkze2l627vdu5uFRaxyHe8FosR5sCcxqMZ3iO0Rpcp0ApQPCLEasUpaEC3Yi2lS3fOojOhsr3HDmObyMtsVcYqS29Qh5FEfklwrM5OXeUa/yjkcAwfr7TDpiyTfXvjkMR+Vw2A998qaBac5tAKHU1hq3i4oNwjRr9ofvayt/+Rk+yX/4iWA159KpXWKxJx/z0Bopfyw+g4=);strokeColor=#6c8ebf;spacingTop=-1;spacingBottom=-1;spacingLeft=-1;spacingRight=-1;points=[[0.5,1,0],[0.5,0,0],[0,0.5,0],[1,0.5,0]];labelBackgroundColor=none;rounded=1;html=1;whiteSpace=wrap;fontFamily=Calibri;" parent="1" vertex="1">
            <mxGeometry x="-2014.25" y="-833.95" width="101" height="38.15" as="geometry" />
          </mxCell>
        </UserObject>
        <mxCell id="_OgBhQzUPCrYew9Ys8lD-7" style="edgeStyle=orthogonalEdgeStyle;rounded=0;orthogonalLoop=1;jettySize=auto;html=1;entryX=0.5;entryY=0;entryDx=0;entryDy=0;" edge="1" parent="1" source="lFIIQ00Y4gTMDogE_Xks-35" target="_OgBhQzUPCrYew9Ys8lD-6">
          <mxGeometry relative="1" as="geometry" />
        </mxCell>
        <UserObject label="&lt;div style=&quot;font-size: 1px&quot;&gt;&lt;font style=&quot;font-size: 11.29px; direction: ltr; letter-spacing: 0px; line-height: 120%; opacity: 1;&quot;&gt;Start&lt;br&gt;&lt;/font&gt;&lt;/div&gt;" Function="EN_DIO_Error_T DIO_port_write(EN_DIO_PORT_T portNumber, uint8_t byte, uint8_t mask)" tags="Flowchart" id="lFIIQ00Y4gTMDogE_Xks-35">
          <mxCell style="verticalAlign=middle;align=center;overflow=width;vsdxID=293;fillColor=#dae8fc;shape=stencil(tVLREoIgEPwaHnEQxsl3s/9gEpSJwDko7e+DsEkze2l627vdu5uFRaxyHe8FosR5sCcxqMZ3iO0Rpcp0ApQPCLEasUpaEC3Yi2lS3fOojOhsr3HDmObyMtsVcYqS29Qh5FEfklwrM5OXeUa/yjkcAwfr7TDpiyTfXvjkMR+Vw2A998qaBac5tAKHU1hq3i4oNwjRr9ofvayt/+Rk+yX/4iWA159KpXWKxJx/z0Bopfyw+g4=);strokeColor=#6c8ebf;spacingTop=-1;spacingBottom=-1;spacingLeft=-1;spacingRight=-1;points=[[0.5,1,0],[0.5,0,0],[0,0.5,0],[1,0.5,0]];labelBackgroundColor=none;rounded=1;html=1;whiteSpace=wrap;fontFamily=Calibri;" parent="1" vertex="1">
            <mxGeometry x="-684" y="-619.0000000000001" width="101" height="38" as="geometry" />
          </mxCell>
        </UserObject>
        <mxCell id="lFIIQ00Y4gTMDogE_Xks-81" style="edgeStyle=none;curved=1;rounded=0;orthogonalLoop=1;jettySize=auto;html=1;entryX=0.5;entryY=0;entryDx=0;entryDy=0;fontSize=12;startSize=8;endSize=8;" parent="1" source="lFIIQ00Y4gTMDogE_Xks-39" target="lFIIQ00Y4gTMDogE_Xks-80" edge="1">
          <mxGeometry relative="1" as="geometry" />
        </mxCell>
        <mxCell id="_jKht6pM0JxA7Lm3Wi_j-5" value="" style="edgeStyle=orthogonalEdgeStyle;rounded=0;orthogonalLoop=1;jettySize=auto;html=1;" parent="1" source="lFIIQ00Y4gTMDogE_Xks-80" target="_jKht6pM0JxA7Lm3Wi_j-4" edge="1">
          <mxGeometry relative="1" as="geometry" />
        </mxCell>
        <mxCell id="lFIIQ00Y4gTMDogE_Xks-80" value="Superloop" style="rhombus;whiteSpace=wrap;html=1;fontSize=12;fontFamily=Calibri;" parent="1" vertex="1">
          <mxGeometry x="-517" y="-330" width="67" height="63.3" as="geometry" />
        </mxCell>
        <mxCell id="lFIIQ00Y4gTMDogE_Xks-93" style="edgeStyle=none;curved=1;rounded=0;orthogonalLoop=1;jettySize=auto;html=1;entryX=1;entryY=0.5;entryDx=0;entryDy=0;fontSize=12;startSize=8;endSize=8;exitX=1;exitY=0.5;exitDx=0;exitDy=0;" parent="1" source="lFIIQ00Y4gTMDogE_Xks-82" target="lFIIQ00Y4gTMDogE_Xks-80" edge="1">
          <mxGeometry relative="1" as="geometry">
            <mxPoint x="-381.5" y="-59.200000000000045" as="targetPoint" />
            <Array as="points">
              <mxPoint x="-305" y="-65.70000000000005" />
              <mxPoint x="-337" y="-192.70000000000005" />
            </Array>
          </mxGeometry>
        </mxCell>
        <mxCell id="lFIIQ00Y4gTMDogE_Xks-102" style="edgeStyle=none;curved=1;rounded=0;orthogonalLoop=1;jettySize=auto;html=1;entryX=0.5;entryY=0;entryDx=0;entryDy=0;fontSize=12;startSize=8;endSize=8;" parent="1" source="lFIIQ00Y4gTMDogE_Xks-82" target="lFIIQ00Y4gTMDogE_Xks-83" edge="1">
          <mxGeometry relative="1" as="geometry" />
        </mxCell>
        <mxCell id="lFIIQ00Y4gTMDogE_Xks-82" value="case `&lt;b&gt;&lt;i&gt;IDLE&lt;/i&gt;&lt;/b&gt;`" style="rhombus;whiteSpace=wrap;html=1;fontSize=12;fontFamily=Calibri;fillColor=#fff2cc;strokeColor=#d6b656;" parent="1" vertex="1">
          <mxGeometry x="-527.75" y="-123.70000000000005" width="88.5" height="89" as="geometry" />
        </mxCell>
        <mxCell id="_jKht6pM0JxA7Lm3Wi_j-11" value="" style="edgeStyle=orthogonalEdgeStyle;rounded=0;orthogonalLoop=1;jettySize=auto;html=1;" parent="1" source="lFIIQ00Y4gTMDogE_Xks-83" target="_jKht6pM0JxA7Lm3Wi_j-10" edge="1">
          <mxGeometry relative="1" as="geometry" />
        </mxCell>
        <mxCell id="_jKht6pM0JxA7Lm3Wi_j-17" value="" style="edgeStyle=orthogonalEdgeStyle;rounded=0;orthogonalLoop=1;jettySize=auto;html=1;" parent="1" source="lFIIQ00Y4gTMDogE_Xks-83" target="_jKht6pM0JxA7Lm3Wi_j-16" edge="1">
          <mxGeometry relative="1" as="geometry" />
        </mxCell>
        <mxCell id="lFIIQ00Y4gTMDogE_Xks-83" value="case `&lt;b&gt;&lt;i&gt;TX_COMPLETE&lt;/i&gt;&lt;/b&gt;`" style="rhombus;whiteSpace=wrap;html=1;fontSize=12;fontFamily=Calibri;fillColor=#fff2cc;strokeColor=#d6b656;" parent="1" vertex="1">
          <mxGeometry x="-542" y="-2.7000000000000455" width="117" height="78" as="geometry" />
        </mxCell>
        <mxCell id="3IBphvjYudPTPOBFQOcQ-13" style="edgeStyle=orthogonalEdgeStyle;rounded=0;orthogonalLoop=1;jettySize=auto;html=1;entryX=0.5;entryY=0;entryDx=0;entryDy=0;entryPerimeter=0;" parent="1" source="3IBphvjYudPTPOBFQOcQ-1" target="3IBphvjYudPTPOBFQOcQ-2" edge="1">
          <mxGeometry relative="1" as="geometry" />
        </mxCell>
        <UserObject label="&lt;div style=&quot;&quot;&gt;&lt;span style=&quot;font-size: 11.29px;&quot;&gt;Init send queue&lt;/span&gt;&lt;/div&gt;" Function="EN_DIO_Error_T DIO_toggle(uint8_t pinNumber, EN_DIO_PORT_T portNumber);  " tags="Flowchart" id="3IBphvjYudPTPOBFQOcQ-1">
          <mxCell style="verticalAlign=middle;align=center;overflow=width;vsdxID=274;fillColor=#d5e8d4;shape=stencil(nZBLDoAgDERP0z3SIyjew0SURgSD+Lu9kMZoXLhwN9O+tukAlrNpJg1SzDH4QW/URgNYgZTkjA4UkwJUgGXng+6DX1zLfmoymdXo17xh5zmRJ6Q42BWCfc2oJfdAr+Yv+AP9Cb7OJ3H/2JG1HNGz/84klThPVCc=);strokeColor=#82b366;spacingTop=-1;spacingBottom=-1;spacingLeft=-1;spacingRight=-1;points=[[0,0.5,0],[1,0.5,0],[0.5,1,0],[0.5,0,0]];labelBackgroundColor=none;rounded=1;html=1;whiteSpace=wrap;fontFamily=Calibri;" parent="1" vertex="1">
            <mxGeometry x="-2170.25" y="-965.65" width="98" height="30.65" as="geometry" />
          </mxCell>
        </UserObject>
        <mxCell id="_jKht6pM0JxA7Lm3Wi_j-3" style="edgeStyle=orthogonalEdgeStyle;rounded=0;orthogonalLoop=1;jettySize=auto;html=1;entryX=0.5;entryY=0;entryDx=0;entryDy=0;entryPerimeter=0;" parent="1" source="3IBphvjYudPTPOBFQOcQ-2" target="3IBphvjYudPTPOBFQOcQ-3" edge="1">
          <mxGeometry relative="1" as="geometry" />
        </mxCell>
        <UserObject label="&lt;div style=&quot;&quot;&gt;&lt;span style=&quot;font-size: 11.29px;&quot;&gt;Init BCM&lt;/span&gt;&lt;/div&gt;" Function="EN_DIO_Error_T DIO_toggle(uint8_t pinNumber, EN_DIO_PORT_T portNumber);  " tags="Flowchart" id="3IBphvjYudPTPOBFQOcQ-2">
          <mxCell style="verticalAlign=middle;align=center;overflow=width;vsdxID=274;fillColor=#d5e8d4;shape=stencil(nZBLDoAgDERP0z3SIyjew0SURgSD+Lu9kMZoXLhwN9O+tukAlrNpJg1SzDH4QW/URgNYgZTkjA4UkwJUgGXng+6DX1zLfmoymdXo17xh5zmRJ6Q42BWCfc2oJfdAr+Yv+AP9Cb7OJ3H/2JG1HNGz/84klThPVCc=);strokeColor=#82b366;spacingTop=-1;spacingBottom=-1;spacingLeft=-1;spacingRight=-1;points=[[0,0.5,0],[1,0.5,0],[0.5,1,0],[0.5,0,0]];labelBackgroundColor=none;rounded=1;html=1;whiteSpace=wrap;fontFamily=Calibri;" parent="1" vertex="1">
            <mxGeometry x="-2170.25" y="-910" width="98" height="30.65" as="geometry" />
          </mxCell>
        </UserObject>
        <mxCell id="_OgBhQzUPCrYew9Ys8lD-4" style="edgeStyle=orthogonalEdgeStyle;rounded=0;orthogonalLoop=1;jettySize=auto;html=1;entryX=0.5;entryY=0;entryDx=0;entryDy=0;entryPerimeter=0;" edge="1" parent="1" source="3IBphvjYudPTPOBFQOcQ-3" target="_OgBhQzUPCrYew9Ys8lD-1">
          <mxGeometry relative="1" as="geometry" />
        </mxCell>
        <UserObject label="&lt;div style=&quot;&quot;&gt;&lt;span style=&quot;font-size: 11.29px;&quot;&gt;Set BCM callback&lt;/span&gt;&lt;/div&gt;" Function="EN_DIO_Error_T DIO_toggle(uint8_t pinNumber, EN_DIO_PORT_T portNumber);  " tags="Flowchart" id="3IBphvjYudPTPOBFQOcQ-3">
          <mxCell style="verticalAlign=middle;align=center;overflow=width;vsdxID=274;fillColor=#d5e8d4;shape=stencil(nZBLDoAgDERP0z3SIyjew0SURgSD+Lu9kMZoXLhwN9O+tukAlrNpJg1SzDH4QW/URgNYgZTkjA4UkwJUgGXng+6DX1zLfmoymdXo17xh5zmRJ6Q42BWCfc2oJfdAr+Yv+AP9Cb7OJ3H/2JG1HNGz/84klThPVCc=);strokeColor=#82b366;spacingTop=-1;spacingBottom=-1;spacingLeft=-1;spacingRight=-1;points=[[0,0.5,0],[1,0.5,0],[0.5,1,0],[0.5,0,0]];labelBackgroundColor=none;rounded=1;html=1;whiteSpace=wrap;fontFamily=Calibri;" parent="1" vertex="1">
            <mxGeometry x="-2012.75" y="-998.8499999999999" width="98" height="30.65" as="geometry" />
          </mxCell>
        </UserObject>
        <mxCell id="_jKht6pM0JxA7Lm3Wi_j-1" value="" style="edgeStyle=orthogonalEdgeStyle;rounded=0;orthogonalLoop=1;jettySize=auto;html=1;" parent="1" source="3IBphvjYudPTPOBFQOcQ-4" target="lFIIQ00Y4gTMDogE_Xks-2" edge="1">
          <mxGeometry relative="1" as="geometry" />
        </mxCell>
        <UserObject label="&lt;div style=&quot;&quot;&gt;&lt;span style=&quot;font-size: 11.29px;&quot;&gt;Init status LEDs&lt;br&gt;&lt;i&gt;(initially off)&lt;/i&gt;&lt;/span&gt;&lt;/div&gt;" Function="EN_DIO_Error_T DIO_toggle(uint8_t pinNumber, EN_DIO_PORT_T portNumber);  " tags="Flowchart" id="3IBphvjYudPTPOBFQOcQ-4">
          <mxCell style="verticalAlign=middle;align=center;overflow=width;vsdxID=274;fillColor=#d5e8d4;shape=stencil(nZBLDoAgDERP0z3SIyjew0SURgSD+Lu9kMZoXLhwN9O+tukAlrNpJg1SzDH4QW/URgNYgZTkjA4UkwJUgGXng+6DX1zLfmoymdXo17xh5zmRJ6Q42BWCfc2oJfdAr+Yv+AP9Cb7OJ3H/2JG1HNGz/84klThPVCc=);strokeColor=#82b366;spacingTop=-1;spacingBottom=-1;spacingLeft=-1;spacingRight=-1;points=[[0,0.5,0],[1,0.5,0],[0.5,1,0],[0.5,0,0]];labelBackgroundColor=none;rounded=1;html=1;whiteSpace=wrap;fontFamily=Calibri;" parent="1" vertex="1">
            <mxGeometry x="-2012.75" y="-892.0000000000001" width="98" height="30.65" as="geometry" />
          </mxCell>
        </UserObject>
        <mxCell id="3IBphvjYudPTPOBFQOcQ-114" value="True" style="text;html=1;strokeColor=none;fillColor=none;align=center;verticalAlign=middle;whiteSpace=wrap;rounded=0;fontSize=12;fontFamily=Calibri;" parent="1" vertex="1">
          <mxGeometry x="-443.4999999999999" y="-96.70000000000005" width="39" height="16" as="geometry" />
        </mxCell>
        <mxCell id="3IBphvjYudPTPOBFQOcQ-115" value="True" style="text;html=1;strokeColor=none;fillColor=none;align=center;verticalAlign=middle;whiteSpace=wrap;rounded=0;fontSize=12;fontFamily=Calibri;" parent="1" vertex="1">
          <mxGeometry x="-439.2499999999999" y="14.649999999999977" width="39" height="16" as="geometry" />
        </mxCell>
        <mxCell id="3IBphvjYudPTPOBFQOcQ-116" value="False" style="text;html=1;strokeColor=none;fillColor=none;align=center;verticalAlign=middle;whiteSpace=wrap;rounded=0;fontSize=12;fontFamily=Calibri;" parent="1" vertex="1">
          <mxGeometry x="-527.7499999999999" y="88.30000000000007" width="39" height="16" as="geometry" />
        </mxCell>
        <mxCell id="3IBphvjYudPTPOBFQOcQ-117" value="False" style="text;html=1;strokeColor=none;fillColor=none;align=center;verticalAlign=middle;whiteSpace=wrap;rounded=0;fontSize=12;fontFamily=Calibri;" parent="1" vertex="1">
          <mxGeometry x="-531.9999999999999" y="-34.700000000000045" width="39" height="16" as="geometry" />
        </mxCell>
        <mxCell id="_jKht6pM0JxA7Lm3Wi_j-7" value="" style="edgeStyle=orthogonalEdgeStyle;rounded=0;orthogonalLoop=1;jettySize=auto;html=1;" parent="1" source="_jKht6pM0JxA7Lm3Wi_j-4" target="_jKht6pM0JxA7Lm3Wi_j-6" edge="1">
          <mxGeometry relative="1" as="geometry" />
        </mxCell>
        <UserObject label="&lt;div style=&quot;&quot;&gt;&lt;span style=&quot;font-size: 11.29px;&quot;&gt;call BCM_dispatcher()&lt;br&gt;for current instances&lt;/span&gt;&lt;/div&gt;" Function="EN_DIO_Error_T DIO_toggle(uint8_t pinNumber, EN_DIO_PORT_T portNumber);  " tags="Flowchart" id="_jKht6pM0JxA7Lm3Wi_j-4">
          <mxCell style="verticalAlign=middle;align=center;overflow=width;vsdxID=274;fillColor=#d5e8d4;shape=stencil(nZBLDoAgDERP0z3SIyjew0SURgSD+Lu9kMZoXLhwN9O+tukAlrNpJg1SzDH4QW/URgNYgZTkjA4UkwJUgGXng+6DX1zLfmoymdXo17xh5zmRJ6Q42BWCfc2oJfdAr+Yv+AP9Cb7OJ3H/2JG1HNGz/84klThPVCc=);strokeColor=#82b366;spacingTop=-1;spacingBottom=-1;spacingLeft=-1;spacingRight=-1;points=[[0,0.5,0],[1,0.5,0],[0.5,1,0],[0.5,0,0]];labelBackgroundColor=none;rounded=1;html=1;whiteSpace=wrap;fontFamily=Calibri;" parent="1" vertex="1">
            <mxGeometry x="-554.25" y="-242.35000000000002" width="141.5" height="35" as="geometry" />
          </mxCell>
        </UserObject>
        <mxCell id="_jKht6pM0JxA7Lm3Wi_j-8" value="" style="edgeStyle=orthogonalEdgeStyle;rounded=0;orthogonalLoop=1;jettySize=auto;html=1;" parent="1" source="_jKht6pM0JxA7Lm3Wi_j-6" target="lFIIQ00Y4gTMDogE_Xks-82" edge="1">
          <mxGeometry relative="1" as="geometry" />
        </mxCell>
        <UserObject label="&lt;div style=&quot;&quot;&gt;&lt;span style=&quot;font-size: 11.29px;&quot;&gt;switch `app_events`&lt;/span&gt;&lt;/div&gt;" Function="EN_DIO_Error_T DIO_toggle(uint8_t pinNumber, EN_DIO_PORT_T portNumber);  " tags="Flowchart" id="_jKht6pM0JxA7Lm3Wi_j-6">
          <mxCell style="verticalAlign=middle;align=center;overflow=width;vsdxID=274;fillColor=#d5e8d4;shape=stencil(nZBLDoAgDERP0z3SIyjew0SURgSD+Lu9kMZoXLhwN9O+tukAlrNpJg1SzDH4QW/URgNYgZTkjA4UkwJUgGXng+6DX1zLfmoymdXo17xh5zmRJ6Q42BWCfc2oJfdAr+Yv+AP9Cb7OJ3H/2JG1HNGz/84klThPVCc=);strokeColor=#82b366;spacingTop=-1;spacingBottom=-1;spacingLeft=-1;spacingRight=-1;points=[[0,0.5,0],[1,0.5,0],[0.5,1,0],[0.5,0,0]];labelBackgroundColor=none;rounded=1;html=1;whiteSpace=wrap;fontFamily=Calibri;" parent="1" vertex="1">
            <mxGeometry x="-554.25" y="-180.1500000000001" width="141.5" height="35" as="geometry" />
          </mxCell>
        </UserObject>
        <mxCell id="_jKht6pM0JxA7Lm3Wi_j-13" value="" style="edgeStyle=orthogonalEdgeStyle;rounded=0;orthogonalLoop=1;jettySize=auto;html=1;" parent="1" source="_jKht6pM0JxA7Lm3Wi_j-10" target="_jKht6pM0JxA7Lm3Wi_j-12" edge="1">
          <mxGeometry relative="1" as="geometry" />
        </mxCell>
        <mxCell id="_jKht6pM0JxA7Lm3Wi_j-10" value="Toggle Send LED" style="shape=parallelogram;perimeter=parallelogramPerimeter;whiteSpace=wrap;html=1;fixedSize=1;fillColor=#e1d5e7;strokeColor=#9673a6;" parent="1" vertex="1">
          <mxGeometry x="-386" y="15.299999999999955" width="148" height="42" as="geometry" />
        </mxCell>
        <mxCell id="_jKht6pM0JxA7Lm3Wi_j-15" style="edgeStyle=orthogonalEdgeStyle;rounded=0;orthogonalLoop=1;jettySize=auto;html=1;entryX=1;entryY=0.5;entryDx=0;entryDy=0;exitX=1;exitY=0.5;exitDx=0;exitDy=0;exitPerimeter=0;" parent="1" source="_jKht6pM0JxA7Lm3Wi_j-12" target="lFIIQ00Y4gTMDogE_Xks-80" edge="1">
          <mxGeometry relative="1" as="geometry" />
        </mxCell>
        <UserObject label="&lt;div style=&quot;&quot;&gt;&lt;span style=&quot;font-size: 11.29px;&quot;&gt;set app_state = `IDLE`&lt;/span&gt;&lt;/div&gt;" Function="EN_DIO_Error_T DIO_toggle(uint8_t pinNumber, EN_DIO_PORT_T portNumber);  " tags="Flowchart" id="_jKht6pM0JxA7Lm3Wi_j-12">
          <mxCell style="verticalAlign=middle;align=center;overflow=width;vsdxID=274;fillColor=#d5e8d4;shape=stencil(nZBLDoAgDERP0z3SIyjew0SURgSD+Lu9kMZoXLhwN9O+tukAlrNpJg1SzDH4QW/URgNYgZTkjA4UkwJUgGXng+6DX1zLfmoymdXo17xh5zmRJ6Q42BWCfc2oJfdAr+Yv+AP9Cb7OJ3H/2JG1HNGz/84klThPVCc=);strokeColor=#82b366;spacingTop=-1;spacingBottom=-1;spacingLeft=-1;spacingRight=-1;points=[[0,0.5,0],[1,0.5,0],[0.5,1,0],[0.5,0,0]];labelBackgroundColor=none;rounded=1;html=1;whiteSpace=wrap;fontFamily=Calibri;" parent="1" vertex="1">
            <mxGeometry x="-382.75" y="82.5" width="141.5" height="35" as="geometry" />
          </mxCell>
        </UserObject>
        <mxCell id="_jKht6pM0JxA7Lm3Wi_j-20" value="" style="edgeStyle=orthogonalEdgeStyle;rounded=0;orthogonalLoop=1;jettySize=auto;html=1;" parent="1" source="_jKht6pM0JxA7Lm3Wi_j-16" target="_jKht6pM0JxA7Lm3Wi_j-19" edge="1">
          <mxGeometry relative="1" as="geometry" />
        </mxCell>
        <mxCell id="_jKht6pM0JxA7Lm3Wi_j-25" value="" style="edgeStyle=orthogonalEdgeStyle;rounded=0;orthogonalLoop=1;jettySize=auto;html=1;" parent="1" source="_jKht6pM0JxA7Lm3Wi_j-16" target="_jKht6pM0JxA7Lm3Wi_j-24" edge="1">
          <mxGeometry relative="1" as="geometry" />
        </mxCell>
        <mxCell id="_jKht6pM0JxA7Lm3Wi_j-16" value="case `&lt;b&gt;&lt;i&gt;RX_COMPLETE&lt;/i&gt;&lt;/b&gt;`" style="rhombus;whiteSpace=wrap;html=1;fontSize=12;fontFamily=Calibri;fillColor=#fff2cc;strokeColor=#d6b656;" parent="1" vertex="1">
          <mxGeometry x="-542" y="119.29999999999995" width="117" height="78" as="geometry" />
        </mxCell>
        <mxCell id="_jKht6pM0JxA7Lm3Wi_j-18" value="True" style="text;html=1;strokeColor=none;fillColor=none;align=center;verticalAlign=middle;whiteSpace=wrap;rounded=0;fontSize=12;fontFamily=Calibri;" parent="1" vertex="1">
          <mxGeometry x="-428.9999999999999" y="135.29999999999995" width="39" height="16" as="geometry" />
        </mxCell>
        <mxCell id="_jKht6pM0JxA7Lm3Wi_j-22" value="" style="edgeStyle=orthogonalEdgeStyle;rounded=0;orthogonalLoop=1;jettySize=auto;html=1;" parent="1" source="_jKht6pM0JxA7Lm3Wi_j-19" target="_jKht6pM0JxA7Lm3Wi_j-21" edge="1">
          <mxGeometry relative="1" as="geometry" />
        </mxCell>
        <mxCell id="_jKht6pM0JxA7Lm3Wi_j-19" value="Toggle Receive LED" style="shape=parallelogram;perimeter=parallelogramPerimeter;whiteSpace=wrap;html=1;fixedSize=1;fillColor=#e1d5e7;strokeColor=#9673a6;" parent="1" vertex="1">
          <mxGeometry x="-392" y="137.29999999999995" width="148" height="42" as="geometry" />
        </mxCell>
        <mxCell id="_jKht6pM0JxA7Lm3Wi_j-23" style="edgeStyle=orthogonalEdgeStyle;rounded=0;orthogonalLoop=1;jettySize=auto;html=1;entryX=1;entryY=0.5;entryDx=0;entryDy=0;exitX=1;exitY=0.5;exitDx=0;exitDy=0;exitPerimeter=0;" parent="1" source="_jKht6pM0JxA7Lm3Wi_j-21" target="lFIIQ00Y4gTMDogE_Xks-80" edge="1">
          <mxGeometry relative="1" as="geometry">
            <Array as="points">
              <mxPoint x="-190" y="221" />
              <mxPoint x="-190" y="-299" />
              <mxPoint x="-450" y="-299" />
            </Array>
          </mxGeometry>
        </mxCell>
        <UserObject label="&lt;div style=&quot;&quot;&gt;&lt;span style=&quot;font-size: 11.29px;&quot;&gt;set app_state = `PENDING_REC`&lt;/span&gt;&lt;/div&gt;" Function="EN_DIO_Error_T DIO_toggle(uint8_t pinNumber, EN_DIO_PORT_T portNumber);  " tags="Flowchart" id="_jKht6pM0JxA7Lm3Wi_j-21">
          <mxCell style="verticalAlign=middle;align=center;overflow=width;vsdxID=274;fillColor=#d5e8d4;shape=stencil(nZBLDoAgDERP0z3SIyjew0SURgSD+Lu9kMZoXLhwN9O+tukAlrNpJg1SzDH4QW/URgNYgZTkjA4UkwJUgGXng+6DX1zLfmoymdXo17xh5zmRJ6Q42BWCfc2oJfdAr+Yv+AP9Cb7OJ3H/2JG1HNGz/84klThPVCc=);strokeColor=#82b366;spacingTop=-1;spacingBottom=-1;spacingLeft=-1;spacingRight=-1;points=[[0,0.5,0],[1,0.5,0],[0.5,1,0],[0.5,0,0]];labelBackgroundColor=none;rounded=1;html=1;whiteSpace=wrap;fontFamily=Calibri;" parent="1" vertex="1">
            <mxGeometry x="-402" y="203.29999999999995" width="168" height="35" as="geometry" />
          </mxCell>
        </UserObject>
        <mxCell id="_jKht6pM0JxA7Lm3Wi_j-29" value="" style="edgeStyle=orthogonalEdgeStyle;rounded=0;orthogonalLoop=1;jettySize=auto;html=1;" parent="1" source="_jKht6pM0JxA7Lm3Wi_j-24" target="_jKht6pM0JxA7Lm3Wi_j-28" edge="1">
          <mxGeometry relative="1" as="geometry" />
        </mxCell>
        <mxCell id="_jKht6pM0JxA7Lm3Wi_j-37" style="edgeStyle=orthogonalEdgeStyle;rounded=0;orthogonalLoop=1;jettySize=auto;html=1;entryX=0;entryY=0.5;entryDx=0;entryDy=0;" parent="1" source="_jKht6pM0JxA7Lm3Wi_j-24" target="lFIIQ00Y4gTMDogE_Xks-80" edge="1">
          <mxGeometry relative="1" as="geometry">
            <Array as="points">
              <mxPoint x="-574" y="329.29999999999995" />
              <mxPoint x="-574" y="-298.70000000000005" />
              <mxPoint x="-517" y="-298.70000000000005" />
            </Array>
          </mxGeometry>
        </mxCell>
        <mxCell id="_jKht6pM0JxA7Lm3Wi_j-24" value="case `&lt;b&gt;&lt;i&gt;PENDING_REC&lt;/i&gt;&lt;/b&gt;`" style="rhombus;whiteSpace=wrap;html=1;fontSize=12;fontFamily=Calibri;fillColor=#fff2cc;strokeColor=#d6b656;" parent="1" vertex="1">
          <mxGeometry x="-542" y="270.29999999999995" width="117" height="78" as="geometry" />
        </mxCell>
        <mxCell id="_jKht6pM0JxA7Lm3Wi_j-26" value="False" style="text;html=1;strokeColor=none;fillColor=none;align=center;verticalAlign=middle;whiteSpace=wrap;rounded=0;fontSize=12;fontFamily=Calibri;" parent="1" vertex="1">
          <mxGeometry x="-533.9999999999999" y="245.30000000000007" width="39" height="16" as="geometry" />
        </mxCell>
        <mxCell id="_jKht6pM0JxA7Lm3Wi_j-27" value="True" style="text;html=1;strokeColor=none;fillColor=none;align=center;verticalAlign=middle;whiteSpace=wrap;rounded=0;fontSize=12;fontFamily=Calibri;" parent="1" vertex="1">
          <mxGeometry x="-428.9999999999999" y="283.29999999999995" width="39" height="16" as="geometry" />
        </mxCell>
        <mxCell id="_jKht6pM0JxA7Lm3Wi_j-33" style="edgeStyle=orthogonalEdgeStyle;rounded=0;orthogonalLoop=1;jettySize=auto;html=1;entryX=0.5;entryY=0;entryDx=0;entryDy=0;entryPerimeter=0;" parent="1" source="_jKht6pM0JxA7Lm3Wi_j-28" target="_jKht6pM0JxA7Lm3Wi_j-30" edge="1">
          <mxGeometry relative="1" as="geometry" />
        </mxCell>
        <UserObject label="&lt;div style=&quot;&quot;&gt;&lt;span style=&quot;font-size: 11.29px;&quot;&gt;clear receive buffer (BCM_receive)&lt;/span&gt;&lt;/div&gt;" Function="EN_DIO_Error_T DIO_toggle(uint8_t pinNumber, EN_DIO_PORT_T portNumber);  " tags="Flowchart" id="_jKht6pM0JxA7Lm3Wi_j-28">
          <mxCell style="verticalAlign=middle;align=center;overflow=width;vsdxID=274;fillColor=#d5e8d4;shape=stencil(nZBLDoAgDERP0z3SIyjew0SURgSD+Lu9kMZoXLhwN9O+tukAlrNpJg1SzDH4QW/URgNYgZTkjA4UkwJUgGXng+6DX1zLfmoymdXo17xh5zmRJ6Q42BWCfc2oJfdAr+Yv+AP9Cb7OJ3H/2JG1HNGz/84klThPVCc=);strokeColor=#82b366;spacingTop=-1;spacingBottom=-1;spacingLeft=-1;spacingRight=-1;points=[[0,0.5,0],[1,0.5,0],[0.5,1,0],[0.5,0,0]];labelBackgroundColor=none;rounded=1;html=1;whiteSpace=wrap;fontFamily=Calibri;" parent="1" vertex="1">
            <mxGeometry x="-384.5" y="291.79999999999995" width="168" height="35" as="geometry" />
          </mxCell>
        </UserObject>
        <mxCell id="_jKht6pM0JxA7Lm3Wi_j-34" style="edgeStyle=orthogonalEdgeStyle;rounded=0;orthogonalLoop=1;jettySize=auto;html=1;entryX=0.5;entryY=0;entryDx=0;entryDy=0;entryPerimeter=0;" parent="1" source="_jKht6pM0JxA7Lm3Wi_j-30" target="_jKht6pM0JxA7Lm3Wi_j-31" edge="1">
          <mxGeometry relative="1" as="geometry" />
        </mxCell>
        <UserObject label="&lt;div style=&quot;&quot;&gt;&lt;span style=&quot;font-size: 11.29px;&quot;&gt;increment &lt;/span&gt;&lt;i style=&quot;font-size: 11.29px; font-weight: bold;&quot;&gt;`iteration`&lt;/i&gt;&lt;br&gt;&lt;i style=&quot;&quot;&gt;&lt;font style=&quot;font-size: 10px;&quot;&gt;reset to &#39;0&#39; when reaches &#39;9&#39;&lt;/font&gt;&lt;/i&gt;&lt;/div&gt;" Function="EN_DIO_Error_T DIO_toggle(uint8_t pinNumber, EN_DIO_PORT_T portNumber);  " tags="Flowchart" id="_jKht6pM0JxA7Lm3Wi_j-30">
          <mxCell style="verticalAlign=middle;align=center;overflow=width;vsdxID=274;fillColor=#d5e8d4;shape=stencil(nZBLDoAgDERP0z3SIyjew0SURgSD+Lu9kMZoXLhwN9O+tukAlrNpJg1SzDH4QW/URgNYgZTkjA4UkwJUgGXng+6DX1zLfmoymdXo17xh5zmRJ6Q42BWCfc2oJfdAr+Yv+AP9Cb7OJ3H/2JG1HNGz/84klThPVCc=);strokeColor=#82b366;spacingTop=-1;spacingBottom=-1;spacingLeft=-1;spacingRight=-1;points=[[0,0.5,0],[1,0.5,0],[0.5,1,0],[0.5,0,0]];labelBackgroundColor=none;rounded=1;html=1;whiteSpace=wrap;fontFamily=Calibri;" parent="1" vertex="1">
            <mxGeometry x="-384.5" y="348.29999999999995" width="168" height="35" as="geometry" />
          </mxCell>
        </UserObject>
        <mxCell id="_jKht6pM0JxA7Lm3Wi_j-35" style="edgeStyle=orthogonalEdgeStyle;rounded=0;orthogonalLoop=1;jettySize=auto;html=1;entryX=1;entryY=0.5;entryDx=0;entryDy=0;exitX=1;exitY=0.5;exitDx=0;exitDy=0;exitPerimeter=0;" parent="1" source="_jKht6pM0JxA7Lm3Wi_j-31" target="lFIIQ00Y4gTMDogE_Xks-80" edge="1">
          <mxGeometry relative="1" as="geometry">
            <Array as="points">
              <mxPoint x="-172" y="419" />
              <mxPoint x="-172" y="-299" />
              <mxPoint x="-450" y="-299" />
            </Array>
          </mxGeometry>
        </mxCell>
        <UserObject label="&lt;div style=&quot;&quot;&gt;&lt;span style=&quot;font-size: 11.29px;&quot;&gt;set app_state = `IDLE`&lt;/span&gt;&lt;/div&gt;" Function="EN_DIO_Error_T DIO_toggle(uint8_t pinNumber, EN_DIO_PORT_T portNumber);  " tags="Flowchart" id="_jKht6pM0JxA7Lm3Wi_j-31">
          <mxCell style="verticalAlign=middle;align=center;overflow=width;vsdxID=274;fillColor=#d5e8d4;shape=stencil(nZBLDoAgDERP0z3SIyjew0SURgSD+Lu9kMZoXLhwN9O+tukAlrNpJg1SzDH4QW/URgNYgZTkjA4UkwJUgGXng+6DX1zLfmoymdXo17xh5zmRJ6Q42BWCfc2oJfdAr+Yv+AP9Cb7OJ3H/2JG1HNGz/84klThPVCc=);strokeColor=#82b366;spacingTop=-1;spacingBottom=-1;spacingLeft=-1;spacingRight=-1;points=[[0,0.5,0],[1,0.5,0],[0.5,1,0],[0.5,0,0]];labelBackgroundColor=none;rounded=1;html=1;whiteSpace=wrap;fontFamily=Calibri;" parent="1" vertex="1">
            <mxGeometry x="-371.25" y="401.29999999999995" width="141.5" height="35" as="geometry" />
          </mxCell>
        </UserObject>
        <mxCell id="_jKht6pM0JxA7Lm3Wi_j-36" value="False" style="text;html=1;strokeColor=none;fillColor=none;align=center;verticalAlign=middle;whiteSpace=wrap;rounded=0;fontSize=12;fontFamily=Calibri;" parent="1" vertex="1">
          <mxGeometry x="-566.7499999999999" y="326.8000000000002" width="39" height="16" as="geometry" />
        </mxCell>
        <mxCell id="_OgBhQzUPCrYew9Ys8lD-5" style="edgeStyle=orthogonalEdgeStyle;rounded=0;orthogonalLoop=1;jettySize=auto;html=1;entryX=0.5;entryY=0;entryDx=0;entryDy=0;entryPerimeter=0;" edge="1" parent="1" source="_OgBhQzUPCrYew9Ys8lD-1" target="3IBphvjYudPTPOBFQOcQ-4">
          <mxGeometry relative="1" as="geometry" />
        </mxCell>
        <UserObject label="&lt;div style=&quot;&quot;&gt;&lt;span style=&quot;font-size: 11.29px;&quot;&gt;Init matches array&lt;/span&gt;&lt;/div&gt;" Function="EN_DIO_Error_T DIO_toggle(uint8_t pinNumber, EN_DIO_PORT_T portNumber);  " tags="Flowchart" id="_OgBhQzUPCrYew9Ys8lD-1">
          <mxCell style="verticalAlign=middle;align=center;overflow=width;vsdxID=274;fillColor=#d5e8d4;shape=stencil(nZBLDoAgDERP0z3SIyjew0SURgSD+Lu9kMZoXLhwN9O+tukAlrNpJg1SzDH4QW/URgNYgZTkjA4UkwJUgGXng+6DX1zLfmoymdXo17xh5zmRJ6Q42BWCfc2oJfdAr+Yv+AP9Cb7OJ3H/2JG1HNGz/84klThPVCc=);strokeColor=#82b366;spacingTop=-1;spacingBottom=-1;spacingLeft=-1;spacingRight=-1;points=[[0,0.5,0],[1,0.5,0],[0.5,1,0],[0.5,0,0]];labelBackgroundColor=none;rounded=1;html=1;whiteSpace=wrap;fontFamily=Calibri;" vertex="1" parent="1">
            <mxGeometry x="-2012.75" y="-948.0000000000001" width="98" height="30.65" as="geometry" />
          </mxCell>
        </UserObject>
        <mxCell id="_OgBhQzUPCrYew9Ys8lD-3" style="edgeStyle=orthogonalEdgeStyle;rounded=0;orthogonalLoop=1;jettySize=auto;html=1;entryX=1;entryY=0.5;entryDx=0;entryDy=0;entryPerimeter=0;dashed=1;" edge="1" parent="1" source="_OgBhQzUPCrYew9Ys8lD-2" target="_OgBhQzUPCrYew9Ys8lD-1">
          <mxGeometry relative="1" as="geometry" />
        </mxCell>
        <mxCell id="_OgBhQzUPCrYew9Ys8lD-2" value="&lt;font style=&quot;font-size: 10px;&quot;&gt;array used by private function `&lt;b&gt;&lt;i&gt;app_dequeue_match&lt;/i&gt;&lt;/b&gt;` to check for matching strings in received data&lt;br&gt;Returns enum &lt;i&gt;&lt;b&gt;`match_id`&lt;/b&gt;&lt;/i&gt;&lt;/font&gt;" style="shape=note;whiteSpace=wrap;html=1;backgroundOutline=1;fontColor=#000000;darkOpacity=0.05;fillColor=#FFF9B2;strokeColor=none;fillStyle=solid;direction=west;gradientDirection=north;gradientColor=#FFF2A1;shadow=1;size=20;pointerEvents=1;" vertex="1" parent="1">
          <mxGeometry x="-1876.25" y="-970.01" width="163" height="74.67" as="geometry" />
        </mxCell>
        <mxCell id="_OgBhQzUPCrYew9Ys8lD-11" style="edgeStyle=orthogonalEdgeStyle;rounded=0;orthogonalLoop=1;jettySize=auto;html=1;entryX=0.5;entryY=0;entryDx=0;entryDy=0;entryPerimeter=0;" edge="1" parent="1" source="_OgBhQzUPCrYew9Ys8lD-6" target="_OgBhQzUPCrYew9Ys8lD-10">
          <mxGeometry relative="1" as="geometry" />
        </mxCell>
        <mxCell id="_OgBhQzUPCrYew9Ys8lD-99" style="edgeStyle=orthogonalEdgeStyle;rounded=0;orthogonalLoop=1;jettySize=auto;html=1;entryX=0.5;entryY=0;entryDx=0;entryDy=0;" edge="1" parent="1" source="_OgBhQzUPCrYew9Ys8lD-6" target="_OgBhQzUPCrYew9Ys8lD-59">
          <mxGeometry relative="1" as="geometry" />
        </mxCell>
        <mxCell id="_OgBhQzUPCrYew9Ys8lD-6" value="#TEST_MODE" style="rhombus;whiteSpace=wrap;html=1;fontSize=12;fontFamily=Calibri;fillColor=#fff2cc;strokeColor=#d6b656;" vertex="1" parent="1">
          <mxGeometry x="-677.75" y="-548" width="88.5" height="89" as="geometry" />
        </mxCell>
        <mxCell id="_OgBhQzUPCrYew9Ys8lD-9" value="True" style="text;html=1;strokeColor=none;fillColor=none;align=center;verticalAlign=middle;whiteSpace=wrap;rounded=0;" vertex="1" parent="1">
          <mxGeometry x="-554.25" y="-522" width="41" height="17" as="geometry" />
        </mxCell>
        <mxCell id="_OgBhQzUPCrYew9Ys8lD-14" style="edgeStyle=orthogonalEdgeStyle;rounded=0;orthogonalLoop=1;jettySize=auto;html=1;entryX=0.5;entryY=0;entryDx=0;entryDy=0;entryPerimeter=0;" edge="1" parent="1" source="_OgBhQzUPCrYew9Ys8lD-10" target="lFIIQ00Y4gTMDogE_Xks-39">
          <mxGeometry relative="1" as="geometry" />
        </mxCell>
        <UserObject label="&lt;div style=&quot;&quot;&gt;&lt;span style=&quot;font-size: 11.29px;&quot;&gt;init &lt;b style=&quot;font-style: italic;&quot;&gt;`iteration` = 0&lt;/b&gt;&lt;/span&gt;&lt;/div&gt;" Function="EN_DIO_Error_T DIO_port_write(EN_DIO_PORT_T portNumber, uint8_t byte, uint8_t mask)" tags="Flowchart" id="_OgBhQzUPCrYew9Ys8lD-10">
          <mxCell style="verticalAlign=middle;align=center;overflow=width;vsdxID=309;fillColor=#d5e8d4;shape=stencil(nZBLDoAgDERP0z3SIyjew0SURgSD+Lu9kMZoXLhwN9O+tukAlrNpJg1SzDH4QW/URgNYgZTkjA4UkwJUgGXng+6DX1zLfmoymdXo17xh5zmRJ6Q42BWCfc2oJfdAr+Yv+AP9Cb7OJ3H/2JG1HNGz/84klThPVCc=);strokeColor=#82b366;spacingTop=-1;spacingBottom=-1;spacingLeft=-1;spacingRight=-1;points=[[0,0.5,0],[1,0.5,0],[0.5,1,0],[0.5,0,0]];labelBackgroundColor=none;rounded=1;html=1;whiteSpace=wrap;fontFamily=Calibri;" vertex="1" parent="1">
            <mxGeometry x="-534" y="-442" width="101" height="38" as="geometry" />
          </mxCell>
        </UserObject>
        <UserObject label="&lt;div style=&quot;&quot;&gt;&lt;span style=&quot;font-size: 11.29px;&quot;&gt;BCM_send_n(&amp;lt;precompiled test string&amp;gt; + &lt;b style=&quot;&quot;&gt;&lt;i&gt;`iteration`&lt;/i&gt;&lt;/b&gt;)&lt;/span&gt;&lt;/div&gt;" Function="EN_DIO_Error_T DIO_port_write(EN_DIO_PORT_T portNumber, uint8_t byte, uint8_t mask)" tags="Flowchart" id="lFIIQ00Y4gTMDogE_Xks-39">
          <mxCell style="verticalAlign=middle;align=center;overflow=width;vsdxID=309;fillColor=#d5e8d4;shape=stencil(nZBLDoAgDERP0z3SIyjew0SURgSD+Lu9kMZoXLhwN9O+tukAlrNpJg1SzDH4QW/URgNYgZTkjA4UkwJUgGXng+6DX1zLfmoymdXo17xh5zmRJ6Q42BWCfc2oJfdAr+Yv+AP9Cb7OJ3H/2JG1HNGz/84klThPVCc=);strokeColor=#82b366;spacingTop=-1;spacingBottom=-1;spacingLeft=-1;spacingRight=-1;points=[[0,0.5,0],[1,0.5,0],[0.5,1,0],[0.5,0,0]];labelBackgroundColor=none;rounded=1;html=1;whiteSpace=wrap;fontFamily=Calibri;" parent="1" vertex="1">
            <mxGeometry x="-624" y="-392" width="281" height="38" as="geometry" />
          </mxCell>
        </UserObject>
        <mxCell id="_OgBhQzUPCrYew9Ys8lD-58" value="" style="edgeStyle=orthogonalEdgeStyle;rounded=0;orthogonalLoop=1;jettySize=auto;html=1;" edge="1" source="_OgBhQzUPCrYew9Ys8lD-59" target="_OgBhQzUPCrYew9Ys8lD-71" parent="1">
          <mxGeometry relative="1" as="geometry" />
        </mxCell>
        <mxCell id="_OgBhQzUPCrYew9Ys8lD-59" value="Superloop" style="rhombus;whiteSpace=wrap;html=1;fontSize=12;fontFamily=Calibri;" vertex="1" parent="1">
          <mxGeometry x="-1044" y="-451" width="67" height="63.3" as="geometry" />
        </mxCell>
        <mxCell id="_OgBhQzUPCrYew9Ys8lD-60" style="edgeStyle=none;curved=1;rounded=0;orthogonalLoop=1;jettySize=auto;html=1;entryX=1;entryY=0.5;entryDx=0;entryDy=0;fontSize=12;startSize=8;endSize=8;exitX=1;exitY=0.5;exitDx=0;exitDy=0;" edge="1" source="_OgBhQzUPCrYew9Ys8lD-62" target="_OgBhQzUPCrYew9Ys8lD-59" parent="1">
          <mxGeometry relative="1" as="geometry">
            <mxPoint x="-908.5" y="-180.20000000000005" as="targetPoint" />
            <Array as="points">
              <mxPoint x="-832" y="-186.70000000000005" />
              <mxPoint x="-864" y="-313.70000000000005" />
            </Array>
          </mxGeometry>
        </mxCell>
        <mxCell id="_OgBhQzUPCrYew9Ys8lD-61" style="edgeStyle=none;curved=1;rounded=0;orthogonalLoop=1;jettySize=auto;html=1;entryX=0.5;entryY=0;entryDx=0;entryDy=0;fontSize=12;startSize=8;endSize=8;" edge="1" source="_OgBhQzUPCrYew9Ys8lD-62" target="_OgBhQzUPCrYew9Ys8lD-65" parent="1">
          <mxGeometry relative="1" as="geometry" />
        </mxCell>
        <mxCell id="_OgBhQzUPCrYew9Ys8lD-62" value="case `&lt;b&gt;&lt;i&gt;IDLE&lt;/i&gt;&lt;/b&gt;`" style="rhombus;whiteSpace=wrap;html=1;fontSize=12;fontFamily=Calibri;fillColor=#fff2cc;strokeColor=#d6b656;" vertex="1" parent="1">
          <mxGeometry x="-1054.75" y="-244.70000000000005" width="88.5" height="89" as="geometry" />
        </mxCell>
        <mxCell id="_OgBhQzUPCrYew9Ys8lD-63" value="" style="edgeStyle=orthogonalEdgeStyle;rounded=0;orthogonalLoop=1;jettySize=auto;html=1;" edge="1" source="_OgBhQzUPCrYew9Ys8lD-65" target="_OgBhQzUPCrYew9Ys8lD-75" parent="1">
          <mxGeometry relative="1" as="geometry" />
        </mxCell>
        <mxCell id="_OgBhQzUPCrYew9Ys8lD-64" value="" style="edgeStyle=orthogonalEdgeStyle;rounded=0;orthogonalLoop=1;jettySize=auto;html=1;" edge="1" source="_OgBhQzUPCrYew9Ys8lD-65" target="_OgBhQzUPCrYew9Ys8lD-80" parent="1">
          <mxGeometry relative="1" as="geometry" />
        </mxCell>
        <mxCell id="_OgBhQzUPCrYew9Ys8lD-65" value="case `&lt;b&gt;&lt;i&gt;TX_COMPLETE&lt;/i&gt;&lt;/b&gt;`" style="rhombus;whiteSpace=wrap;html=1;fontSize=12;fontFamily=Calibri;fillColor=#fff2cc;strokeColor=#d6b656;" vertex="1" parent="1">
          <mxGeometry x="-1069" y="-123.70000000000005" width="117" height="78" as="geometry" />
        </mxCell>
        <mxCell id="_OgBhQzUPCrYew9Ys8lD-66" value="True" style="text;html=1;strokeColor=none;fillColor=none;align=center;verticalAlign=middle;whiteSpace=wrap;rounded=0;fontSize=12;fontFamily=Calibri;" vertex="1" parent="1">
          <mxGeometry x="-970.4999999999999" y="-217.70000000000005" width="39" height="16" as="geometry" />
        </mxCell>
        <mxCell id="_OgBhQzUPCrYew9Ys8lD-67" value="True" style="text;html=1;strokeColor=none;fillColor=none;align=center;verticalAlign=middle;whiteSpace=wrap;rounded=0;fontSize=12;fontFamily=Calibri;" vertex="1" parent="1">
          <mxGeometry x="-966.2499999999999" y="-106.35000000000002" width="39" height="16" as="geometry" />
        </mxCell>
        <mxCell id="_OgBhQzUPCrYew9Ys8lD-68" value="False" style="text;html=1;strokeColor=none;fillColor=none;align=center;verticalAlign=middle;whiteSpace=wrap;rounded=0;fontSize=12;fontFamily=Calibri;" vertex="1" parent="1">
          <mxGeometry x="-1054.75" y="-32.69999999999993" width="39" height="16" as="geometry" />
        </mxCell>
        <mxCell id="_OgBhQzUPCrYew9Ys8lD-69" value="False" style="text;html=1;strokeColor=none;fillColor=none;align=center;verticalAlign=middle;whiteSpace=wrap;rounded=0;fontSize=12;fontFamily=Calibri;" vertex="1" parent="1">
          <mxGeometry x="-1059" y="-155.70000000000005" width="39" height="16" as="geometry" />
        </mxCell>
        <mxCell id="_OgBhQzUPCrYew9Ys8lD-70" value="" style="edgeStyle=orthogonalEdgeStyle;rounded=0;orthogonalLoop=1;jettySize=auto;html=1;" edge="1" source="_OgBhQzUPCrYew9Ys8lD-71" target="_OgBhQzUPCrYew9Ys8lD-73" parent="1">
          <mxGeometry relative="1" as="geometry" />
        </mxCell>
        <UserObject label="&lt;div style=&quot;&quot;&gt;&lt;span style=&quot;font-size: 11.29px;&quot;&gt;call BCM_dispatcher()&lt;br&gt;for current instances&lt;/span&gt;&lt;/div&gt;" Function="EN_DIO_Error_T DIO_toggle(uint8_t pinNumber, EN_DIO_PORT_T portNumber);  " tags="Flowchart" id="_OgBhQzUPCrYew9Ys8lD-71">
          <mxCell style="verticalAlign=middle;align=center;overflow=width;vsdxID=274;fillColor=#d5e8d4;shape=stencil(nZBLDoAgDERP0z3SIyjew0SURgSD+Lu9kMZoXLhwN9O+tukAlrNpJg1SzDH4QW/URgNYgZTkjA4UkwJUgGXng+6DX1zLfmoymdXo17xh5zmRJ6Q42BWCfc2oJfdAr+Yv+AP9Cb7OJ3H/2JG1HNGz/84klThPVCc=);strokeColor=#82b366;spacingTop=-1;spacingBottom=-1;spacingLeft=-1;spacingRight=-1;points=[[0,0.5,0],[1,0.5,0],[0.5,1,0],[0.5,0,0]];labelBackgroundColor=none;rounded=1;html=1;whiteSpace=wrap;fontFamily=Calibri;" vertex="1" parent="1">
            <mxGeometry x="-1081.25" y="-363.35" width="141.5" height="35" as="geometry" />
          </mxCell>
        </UserObject>
        <mxCell id="_OgBhQzUPCrYew9Ys8lD-72" value="" style="edgeStyle=orthogonalEdgeStyle;rounded=0;orthogonalLoop=1;jettySize=auto;html=1;" edge="1" source="_OgBhQzUPCrYew9Ys8lD-73" target="_OgBhQzUPCrYew9Ys8lD-62" parent="1">
          <mxGeometry relative="1" as="geometry" />
        </mxCell>
        <UserObject label="&lt;div style=&quot;&quot;&gt;&lt;span style=&quot;font-size: 11.29px;&quot;&gt;switch `app_events`&lt;/span&gt;&lt;/div&gt;" Function="EN_DIO_Error_T DIO_toggle(uint8_t pinNumber, EN_DIO_PORT_T portNumber);  " tags="Flowchart" id="_OgBhQzUPCrYew9Ys8lD-73">
          <mxCell style="verticalAlign=middle;align=center;overflow=width;vsdxID=274;fillColor=#d5e8d4;shape=stencil(nZBLDoAgDERP0z3SIyjew0SURgSD+Lu9kMZoXLhwN9O+tukAlrNpJg1SzDH4QW/URgNYgZTkjA4UkwJUgGXng+6DX1zLfmoymdXo17xh5zmRJ6Q42BWCfc2oJfdAr+Yv+AP9Cb7OJ3H/2JG1HNGz/84klThPVCc=);strokeColor=#82b366;spacingTop=-1;spacingBottom=-1;spacingLeft=-1;spacingRight=-1;points=[[0,0.5,0],[1,0.5,0],[0.5,1,0],[0.5,0,0]];labelBackgroundColor=none;rounded=1;html=1;whiteSpace=wrap;fontFamily=Calibri;" vertex="1" parent="1">
            <mxGeometry x="-1081.25" y="-301.1500000000001" width="141.5" height="35" as="geometry" />
          </mxCell>
        </UserObject>
        <mxCell id="_OgBhQzUPCrYew9Ys8lD-74" value="" style="edgeStyle=orthogonalEdgeStyle;rounded=0;orthogonalLoop=1;jettySize=auto;html=1;" edge="1" source="_OgBhQzUPCrYew9Ys8lD-75" target="_OgBhQzUPCrYew9Ys8lD-77" parent="1">
          <mxGeometry relative="1" as="geometry" />
        </mxCell>
        <mxCell id="_OgBhQzUPCrYew9Ys8lD-75" value="Toggle Send LED" style="shape=parallelogram;perimeter=parallelogramPerimeter;whiteSpace=wrap;html=1;fixedSize=1;fillColor=#e1d5e7;strokeColor=#9673a6;" vertex="1" parent="1">
          <mxGeometry x="-913" y="-105.70000000000005" width="148" height="42" as="geometry" />
        </mxCell>
        <mxCell id="_OgBhQzUPCrYew9Ys8lD-76" style="edgeStyle=orthogonalEdgeStyle;rounded=0;orthogonalLoop=1;jettySize=auto;html=1;entryX=1;entryY=0.5;entryDx=0;entryDy=0;exitX=1;exitY=0.5;exitDx=0;exitDy=0;exitPerimeter=0;" edge="1" source="_OgBhQzUPCrYew9Ys8lD-77" target="_OgBhQzUPCrYew9Ys8lD-59" parent="1">
          <mxGeometry relative="1" as="geometry" />
        </mxCell>
        <UserObject label="&lt;div style=&quot;&quot;&gt;&lt;span style=&quot;font-size: 11.29px;&quot;&gt;set app_state = `IDLE`&lt;/span&gt;&lt;/div&gt;" Function="EN_DIO_Error_T DIO_toggle(uint8_t pinNumber, EN_DIO_PORT_T portNumber);  " tags="Flowchart" id="_OgBhQzUPCrYew9Ys8lD-77">
          <mxCell style="verticalAlign=middle;align=center;overflow=width;vsdxID=274;fillColor=#d5e8d4;shape=stencil(nZBLDoAgDERP0z3SIyjew0SURgSD+Lu9kMZoXLhwN9O+tukAlrNpJg1SzDH4QW/URgNYgZTkjA4UkwJUgGXng+6DX1zLfmoymdXo17xh5zmRJ6Q42BWCfc2oJfdAr+Yv+AP9Cb7OJ3H/2JG1HNGz/84klThPVCc=);strokeColor=#82b366;spacingTop=-1;spacingBottom=-1;spacingLeft=-1;spacingRight=-1;points=[[0,0.5,0],[1,0.5,0],[0.5,1,0],[0.5,0,0]];labelBackgroundColor=none;rounded=1;html=1;whiteSpace=wrap;fontFamily=Calibri;" vertex="1" parent="1">
            <mxGeometry x="-909.75" y="-38.5" width="141.5" height="35" as="geometry" />
          </mxCell>
        </UserObject>
        <mxCell id="_OgBhQzUPCrYew9Ys8lD-78" value="" style="edgeStyle=orthogonalEdgeStyle;rounded=0;orthogonalLoop=1;jettySize=auto;html=1;" edge="1" source="_OgBhQzUPCrYew9Ys8lD-80" target="_OgBhQzUPCrYew9Ys8lD-83" parent="1">
          <mxGeometry relative="1" as="geometry" />
        </mxCell>
        <mxCell id="_OgBhQzUPCrYew9Ys8lD-79" value="" style="edgeStyle=orthogonalEdgeStyle;rounded=0;orthogonalLoop=1;jettySize=auto;html=1;" edge="1" source="_OgBhQzUPCrYew9Ys8lD-80" target="_OgBhQzUPCrYew9Ys8lD-88" parent="1">
          <mxGeometry relative="1" as="geometry" />
        </mxCell>
        <mxCell id="_OgBhQzUPCrYew9Ys8lD-80" value="case `&lt;b&gt;&lt;i&gt;RX_COMPLETE&lt;/i&gt;&lt;/b&gt;`" style="rhombus;whiteSpace=wrap;html=1;fontSize=12;fontFamily=Calibri;fillColor=#fff2cc;strokeColor=#d6b656;" vertex="1" parent="1">
          <mxGeometry x="-1069" y="-1.7000000000000455" width="117" height="78" as="geometry" />
        </mxCell>
        <mxCell id="_OgBhQzUPCrYew9Ys8lD-81" value="True" style="text;html=1;strokeColor=none;fillColor=none;align=center;verticalAlign=middle;whiteSpace=wrap;rounded=0;fontSize=12;fontFamily=Calibri;" vertex="1" parent="1">
          <mxGeometry x="-955.9999999999999" y="14.299999999999955" width="39" height="16" as="geometry" />
        </mxCell>
        <mxCell id="_OgBhQzUPCrYew9Ys8lD-82" value="" style="edgeStyle=orthogonalEdgeStyle;rounded=0;orthogonalLoop=1;jettySize=auto;html=1;" edge="1" source="_OgBhQzUPCrYew9Ys8lD-83" target="_OgBhQzUPCrYew9Ys8lD-85" parent="1">
          <mxGeometry relative="1" as="geometry" />
        </mxCell>
        <mxCell id="_OgBhQzUPCrYew9Ys8lD-83" value="Toggle Receive LED" style="shape=parallelogram;perimeter=parallelogramPerimeter;whiteSpace=wrap;html=1;fixedSize=1;fillColor=#e1d5e7;strokeColor=#9673a6;" vertex="1" parent="1">
          <mxGeometry x="-919" y="16.299999999999955" width="148" height="42" as="geometry" />
        </mxCell>
        <mxCell id="_OgBhQzUPCrYew9Ys8lD-84" style="edgeStyle=orthogonalEdgeStyle;rounded=0;orthogonalLoop=1;jettySize=auto;html=1;entryX=1;entryY=0.5;entryDx=0;entryDy=0;exitX=1;exitY=0.5;exitDx=0;exitDy=0;exitPerimeter=0;" edge="1" source="_OgBhQzUPCrYew9Ys8lD-85" target="_OgBhQzUPCrYew9Ys8lD-59" parent="1">
          <mxGeometry relative="1" as="geometry">
            <Array as="points">
              <mxPoint x="-717" y="100" />
              <mxPoint x="-717" y="-420" />
              <mxPoint x="-977" y="-420" />
            </Array>
          </mxGeometry>
        </mxCell>
        <UserObject label="&lt;div style=&quot;&quot;&gt;&lt;span style=&quot;font-size: 11.29px;&quot;&gt;set app_state = `PENDING_REC`&lt;/span&gt;&lt;/div&gt;" Function="EN_DIO_Error_T DIO_toggle(uint8_t pinNumber, EN_DIO_PORT_T portNumber);  " tags="Flowchart" id="_OgBhQzUPCrYew9Ys8lD-85">
          <mxCell style="verticalAlign=middle;align=center;overflow=width;vsdxID=274;fillColor=#d5e8d4;shape=stencil(nZBLDoAgDERP0z3SIyjew0SURgSD+Lu9kMZoXLhwN9O+tukAlrNpJg1SzDH4QW/URgNYgZTkjA4UkwJUgGXng+6DX1zLfmoymdXo17xh5zmRJ6Q42BWCfc2oJfdAr+Yv+AP9Cb7OJ3H/2JG1HNGz/84klThPVCc=);strokeColor=#82b366;spacingTop=-1;spacingBottom=-1;spacingLeft=-1;spacingRight=-1;points=[[0,0.5,0],[1,0.5,0],[0.5,1,0],[0.5,0,0]];labelBackgroundColor=none;rounded=1;html=1;whiteSpace=wrap;fontFamily=Calibri;" vertex="1" parent="1">
            <mxGeometry x="-929" y="82.29999999999995" width="168" height="35" as="geometry" />
          </mxCell>
        </UserObject>
        <mxCell id="_OgBhQzUPCrYew9Ys8lD-86" value="" style="edgeStyle=orthogonalEdgeStyle;rounded=0;orthogonalLoop=1;jettySize=auto;html=1;" edge="1" source="_OgBhQzUPCrYew9Ys8lD-88" target="_OgBhQzUPCrYew9Ys8lD-92" parent="1">
          <mxGeometry relative="1" as="geometry" />
        </mxCell>
        <mxCell id="_OgBhQzUPCrYew9Ys8lD-87" style="edgeStyle=orthogonalEdgeStyle;rounded=0;orthogonalLoop=1;jettySize=auto;html=1;entryX=0;entryY=0.5;entryDx=0;entryDy=0;exitX=0;exitY=0.5;exitDx=0;exitDy=0;" edge="1" source="_OgBhQzUPCrYew9Ys8lD-88" target="_OgBhQzUPCrYew9Ys8lD-59" parent="1">
          <mxGeometry relative="1" as="geometry">
            <Array as="points">
              <mxPoint x="-1101" y="188" />
              <mxPoint x="-1101" y="-420" />
              <mxPoint x="-1044" y="-420" />
            </Array>
          </mxGeometry>
        </mxCell>
        <mxCell id="_OgBhQzUPCrYew9Ys8lD-88" value="case `&lt;b&gt;&lt;i&gt;PENDING_REC&lt;/i&gt;&lt;/b&gt;`" style="rhombus;whiteSpace=wrap;html=1;fontSize=12;fontFamily=Calibri;fillColor=#fff2cc;strokeColor=#d6b656;" vertex="1" parent="1">
          <mxGeometry x="-1069" y="149.29999999999995" width="117" height="78" as="geometry" />
        </mxCell>
        <mxCell id="_OgBhQzUPCrYew9Ys8lD-89" value="False" style="text;html=1;strokeColor=none;fillColor=none;align=center;verticalAlign=middle;whiteSpace=wrap;rounded=0;fontSize=12;fontFamily=Calibri;" vertex="1" parent="1">
          <mxGeometry x="-1054.75" y="107.00000000000011" width="39" height="16" as="geometry" />
        </mxCell>
        <mxCell id="_OgBhQzUPCrYew9Ys8lD-90" value="True" style="text;html=1;strokeColor=none;fillColor=none;align=center;verticalAlign=middle;whiteSpace=wrap;rounded=0;fontSize=12;fontFamily=Calibri;" vertex="1" parent="1">
          <mxGeometry x="-955.9999999999999" y="162.29999999999995" width="39" height="16" as="geometry" />
        </mxCell>
        <mxCell id="_OgBhQzUPCrYew9Ys8lD-91" style="edgeStyle=orthogonalEdgeStyle;rounded=0;orthogonalLoop=1;jettySize=auto;html=1;entryX=0.5;entryY=0;entryDx=0;entryDy=0;entryPerimeter=0;" edge="1" source="_OgBhQzUPCrYew9Ys8lD-92" target="_OgBhQzUPCrYew9Ys8lD-94" parent="1">
          <mxGeometry relative="1" as="geometry" />
        </mxCell>
        <UserObject label="&lt;div style=&quot;&quot;&gt;&lt;span style=&quot;font-size: 11.29px;&quot;&gt;Retreive received data ptr&lt;/span&gt;&lt;/div&gt;&lt;div style=&quot;&quot;&gt;&lt;span style=&quot;font-size: 11.29px;&quot;&gt;&lt;b&gt;&lt;i&gt;BCM_receive()&lt;/i&gt;&lt;/b&gt;&lt;/span&gt;&lt;/div&gt;" Function="EN_DIO_Error_T DIO_toggle(uint8_t pinNumber, EN_DIO_PORT_T portNumber);  " tags="Flowchart" id="_OgBhQzUPCrYew9Ys8lD-92">
          <mxCell style="verticalAlign=middle;align=center;overflow=width;vsdxID=274;fillColor=#d5e8d4;shape=stencil(nZBLDoAgDERP0z3SIyjew0SURgSD+Lu9kMZoXLhwN9O+tukAlrNpJg1SzDH4QW/URgNYgZTkjA4UkwJUgGXng+6DX1zLfmoymdXo17xh5zmRJ6Q42BWCfc2oJfdAr+Yv+AP9Cb7OJ3H/2JG1HNGz/84klThPVCc=);strokeColor=#82b366;spacingTop=-1;spacingBottom=-1;spacingLeft=-1;spacingRight=-1;points=[[0,0.5,0],[1,0.5,0],[0.5,1,0],[0.5,0,0]];labelBackgroundColor=none;rounded=1;html=1;whiteSpace=wrap;fontFamily=Calibri;" vertex="1" parent="1">
            <mxGeometry x="-911.5" y="170.79999999999995" width="168" height="35" as="geometry" />
          </mxCell>
        </UserObject>
        <mxCell id="_OgBhQzUPCrYew9Ys8lD-93" style="edgeStyle=orthogonalEdgeStyle;rounded=0;orthogonalLoop=1;jettySize=auto;html=1;entryX=0.5;entryY=0;entryDx=0;entryDy=0;entryPerimeter=0;" edge="1" source="_OgBhQzUPCrYew9Ys8lD-94" target="_OgBhQzUPCrYew9Ys8lD-96" parent="1">
          <mxGeometry relative="1" as="geometry" />
        </mxCell>
        <UserObject label="&lt;div style=&quot;&quot;&gt;&lt;span style=&quot;font-size: 11.29px;&quot;&gt;app_dequeue_match(received_data)&lt;br&gt;Returns &lt;b&gt;&lt;i&gt;match_id&lt;/i&gt;&lt;/b&gt;&lt;/span&gt;&lt;/div&gt;" Function="EN_DIO_Error_T DIO_toggle(uint8_t pinNumber, EN_DIO_PORT_T portNumber);  " tags="Flowchart" id="_OgBhQzUPCrYew9Ys8lD-94">
          <mxCell style="verticalAlign=middle;align=center;overflow=width;vsdxID=274;fillColor=#d5e8d4;shape=stencil(nZBLDoAgDERP0z3SIyjew0SURgSD+Lu9kMZoXLhwN9O+tukAlrNpJg1SzDH4QW/URgNYgZTkjA4UkwJUgGXng+6DX1zLfmoymdXo17xh5zmRJ6Q42BWCfc2oJfdAr+Yv+AP9Cb7OJ3H/2JG1HNGz/84klThPVCc=);strokeColor=#82b366;spacingTop=-1;spacingBottom=-1;spacingLeft=-1;spacingRight=-1;points=[[0,0.5,0],[1,0.5,0],[0.5,1,0],[0.5,0,0]];labelBackgroundColor=none;rounded=1;html=1;whiteSpace=wrap;fontFamily=Calibri;" vertex="1" parent="1">
            <mxGeometry x="-919" y="227.29999999999995" width="183" height="35" as="geometry" />
          </mxCell>
        </UserObject>
        <mxCell id="_OgBhQzUPCrYew9Ys8lD-95" style="edgeStyle=orthogonalEdgeStyle;rounded=0;orthogonalLoop=1;jettySize=auto;html=1;entryX=1;entryY=0.5;entryDx=0;entryDy=0;exitX=1;exitY=0.5;exitDx=0;exitDy=0;exitPerimeter=0;" edge="1" source="_OgBhQzUPCrYew9Ys8lD-96" target="_OgBhQzUPCrYew9Ys8lD-59" parent="1">
          <mxGeometry relative="1" as="geometry">
            <Array as="points">
              <mxPoint x="-699" y="298" />
              <mxPoint x="-699" y="-420" />
              <mxPoint x="-977" y="-420" />
            </Array>
          </mxGeometry>
        </mxCell>
        <mxCell id="_OgBhQzUPCrYew9Ys8lD-105" style="edgeStyle=orthogonalEdgeStyle;rounded=0;orthogonalLoop=1;jettySize=auto;html=1;entryX=0.5;entryY=0;entryDx=0;entryDy=0;" edge="1" parent="1" source="_OgBhQzUPCrYew9Ys8lD-96" target="_OgBhQzUPCrYew9Ys8lD-102">
          <mxGeometry relative="1" as="geometry" />
        </mxCell>
        <UserObject label="&lt;div style=&quot;&quot;&gt;&lt;span style=&quot;font-size: 11.29px;&quot;&gt;Switch (&lt;b&gt;&lt;i&gt;match_id&lt;/i&gt;&lt;/b&gt;)&lt;/span&gt;&lt;/div&gt;" Function="EN_DIO_Error_T DIO_toggle(uint8_t pinNumber, EN_DIO_PORT_T portNumber);  " tags="Flowchart" id="_OgBhQzUPCrYew9Ys8lD-96">
          <mxCell style="verticalAlign=middle;align=center;overflow=width;vsdxID=274;fillColor=#d5e8d4;shape=stencil(nZBLDoAgDERP0z3SIyjew0SURgSD+Lu9kMZoXLhwN9O+tukAlrNpJg1SzDH4QW/URgNYgZTkjA4UkwJUgGXng+6DX1zLfmoymdXo17xh5zmRJ6Q42BWCfc2oJfdAr+Yv+AP9Cb7OJ3H/2JG1HNGz/84klThPVCc=);strokeColor=#82b366;spacingTop=-1;spacingBottom=-1;spacingLeft=-1;spacingRight=-1;points=[[0,0.5,0],[1,0.5,0],[0.5,1,0],[0.5,0,0]];labelBackgroundColor=none;rounded=1;html=1;whiteSpace=wrap;fontFamily=Calibri;" vertex="1" parent="1">
            <mxGeometry x="-882" y="280.29999999999995" width="109" height="25.7" as="geometry" />
          </mxCell>
        </UserObject>
        <mxCell id="_OgBhQzUPCrYew9Ys8lD-97" value="False" style="text;html=1;strokeColor=none;fillColor=none;align=center;verticalAlign=middle;whiteSpace=wrap;rounded=0;fontSize=12;fontFamily=Calibri;" vertex="1" parent="1">
          <mxGeometry x="-1102" y="170.80000000000018" width="39" height="16" as="geometry" />
        </mxCell>
        <mxCell id="_OgBhQzUPCrYew9Ys8lD-100" value="False" style="text;html=1;strokeColor=none;fillColor=none;align=center;verticalAlign=middle;whiteSpace=wrap;rounded=0;" vertex="1" parent="1">
          <mxGeometry x="-736" y="-522" width="41" height="17" as="geometry" />
        </mxCell>
        <mxCell id="_OgBhQzUPCrYew9Ys8lD-107" style="edgeStyle=orthogonalEdgeStyle;rounded=0;orthogonalLoop=1;jettySize=auto;html=1;entryX=0.5;entryY=0;entryDx=0;entryDy=0;entryPerimeter=0;" edge="1" parent="1" source="_OgBhQzUPCrYew9Ys8lD-102" target="_OgBhQzUPCrYew9Ys8lD-106">
          <mxGeometry relative="1" as="geometry" />
        </mxCell>
        <mxCell id="_OgBhQzUPCrYew9Ys8lD-109" style="edgeStyle=orthogonalEdgeStyle;rounded=0;orthogonalLoop=1;jettySize=auto;html=1;entryX=1;entryY=0.5;entryDx=0;entryDy=0;exitX=1;exitY=0.5;exitDx=0;exitDy=0;" edge="1" parent="1" source="_OgBhQzUPCrYew9Ys8lD-102" target="_OgBhQzUPCrYew9Ys8lD-59">
          <mxGeometry relative="1" as="geometry">
            <Array as="points">
              <mxPoint x="-679" y="370" />
              <mxPoint x="-679" y="-419" />
            </Array>
          </mxGeometry>
        </mxCell>
        <mxCell id="_OgBhQzUPCrYew9Ys8lD-102" value="case `&lt;b&gt;&lt;i&gt;SYN_CMD&lt;/i&gt;&lt;/b&gt;`" style="rhombus;whiteSpace=wrap;html=1;fontSize=12;fontFamily=Calibri;fillColor=#fff2cc;strokeColor=#d6b656;" vertex="1" parent="1">
          <mxGeometry x="-868" y="332" width="81" height="76" as="geometry" />
        </mxCell>
        <mxCell id="_OgBhQzUPCrYew9Ys8lD-111" style="edgeStyle=orthogonalEdgeStyle;rounded=0;orthogonalLoop=1;jettySize=auto;html=1;entryX=1;entryY=0.5;entryDx=0;entryDy=0;exitX=1;exitY=0.5;exitDx=0;exitDy=0;exitPerimeter=0;" edge="1" parent="1" source="_OgBhQzUPCrYew9Ys8lD-106" target="_OgBhQzUPCrYew9Ys8lD-59">
          <mxGeometry relative="1" as="geometry">
            <Array as="points">
              <mxPoint x="-663" y="440" />
              <mxPoint x="-663" y="-419" />
            </Array>
          </mxGeometry>
        </mxCell>
        <UserObject label="&lt;div style=&quot;&quot;&gt;&lt;span style=&quot;font-size: 11.29px;&quot;&gt;BCM_send_n `&lt;b&gt;&lt;i&gt;ACK_CMD`&lt;/i&gt;&lt;/b&gt;&lt;/span&gt;&lt;/div&gt;" Function="EN_DIO_Error_T DIO_toggle(uint8_t pinNumber, EN_DIO_PORT_T portNumber);  " tags="Flowchart" id="_OgBhQzUPCrYew9Ys8lD-106">
          <mxCell style="verticalAlign=middle;align=center;overflow=width;vsdxID=274;fillColor=#d5e8d4;shape=stencil(nZBLDoAgDERP0z3SIyjew0SURgSD+Lu9kMZoXLhwN9O+tukAlrNpJg1SzDH4QW/URgNYgZTkjA4UkwJUgGXng+6DX1zLfmoymdXo17xh5zmRJ6Q42BWCfc2oJfdAr+Yv+AP9Cb7OJ3H/2JG1HNGz/84klThPVCc=);strokeColor=#82b366;spacingTop=-1;spacingBottom=-1;spacingLeft=-1;spacingRight=-1;points=[[0,0.5,0],[1,0.5,0],[0.5,1,0],[0.5,0,0]];labelBackgroundColor=none;rounded=1;html=1;whiteSpace=wrap;fontFamily=Calibri;" vertex="1" parent="1">
            <mxGeometry x="-888" y="427" width="121" height="25.7" as="geometry" />
          </mxCell>
        </UserObject>
        <mxCell id="_OgBhQzUPCrYew9Ys8lD-113" value="True" style="text;html=1;strokeColor=none;fillColor=none;align=center;verticalAlign=middle;whiteSpace=wrap;rounded=0;fontSize=12;fontFamily=Calibri;" vertex="1" parent="1">
          <mxGeometry x="-822.9999999999999" y="408" width="39" height="16" as="geometry" />
        </mxCell>
        <mxCell id="_OgBhQzUPCrYew9Ys8lD-114" value="False" style="text;html=1;strokeColor=none;fillColor=none;align=center;verticalAlign=middle;whiteSpace=wrap;rounded=0;fontSize=12;fontFamily=Calibri;" vertex="1" parent="1">
          <mxGeometry x="-783.9999999999999" y="353" width="39" height="16" as="geometry" />
        </mxCell>
        <mxCell id="_OgBhQzUPCrYew9Ys8lD-115" value="(MCU2)&lt;br&gt;app_start" style="text;html=1;strokeColor=none;fillColor=none;align=center;verticalAlign=middle;whiteSpace=wrap;rounded=0;fontSize=16;fontColor=#000000;fontFamily=Calibri;" vertex="1" parent="1">
          <mxGeometry x="-1790" y="-674.0500000000002" width="170" height="30" as="geometry" />
        </mxCell>
        <mxCell id="_OgBhQzUPCrYew9Ys8lD-116" style="edgeStyle=orthogonalEdgeStyle;rounded=0;orthogonalLoop=1;jettySize=auto;html=1;entryX=0.5;entryY=0;entryDx=0;entryDy=0;" edge="1" source="_OgBhQzUPCrYew9Ys8lD-117" target="_OgBhQzUPCrYew9Ys8lD-161" parent="1">
          <mxGeometry relative="1" as="geometry" />
        </mxCell>
        <UserObject label="&lt;div style=&quot;font-size: 1px&quot;&gt;&lt;font style=&quot;font-size: 11.29px; direction: ltr; letter-spacing: 0px; line-height: 120%; opacity: 1;&quot;&gt;Start&lt;br&gt;&lt;/font&gt;&lt;/div&gt;" Function="EN_DIO_Error_T DIO_port_write(EN_DIO_PORT_T portNumber, uint8_t byte, uint8_t mask)" tags="Flowchart" id="_OgBhQzUPCrYew9Ys8lD-117">
          <mxCell style="verticalAlign=middle;align=center;overflow=width;vsdxID=293;fillColor=#dae8fc;shape=stencil(tVLREoIgEPwaHnEQxsl3s/9gEpSJwDko7e+DsEkze2l627vdu5uFRaxyHe8FosR5sCcxqMZ3iO0Rpcp0ApQPCLEasUpaEC3Yi2lS3fOojOhsr3HDmObyMtsVcYqS29Qh5FEfklwrM5OXeUa/yjkcAwfr7TDpiyTfXvjkMR+Vw2A998qaBac5tAKHU1hq3i4oNwjRr9ofvayt/+Rk+yX/4iWA159KpXWKxJx/z0Bopfyw+g4=);strokeColor=#6c8ebf;spacingTop=-1;spacingBottom=-1;spacingLeft=-1;spacingRight=-1;points=[[0.5,1,0],[0.5,0,0],[0,0.5,0],[1,0.5,0]];labelBackgroundColor=none;rounded=1;html=1;whiteSpace=wrap;fontFamily=Calibri;" vertex="1" parent="1">
            <mxGeometry x="-1811" y="-556.0500000000002" width="101" height="38" as="geometry" />
          </mxCell>
        </UserObject>
        <mxCell id="_OgBhQzUPCrYew9Ys8lD-119" value="" style="edgeStyle=orthogonalEdgeStyle;rounded=0;orthogonalLoop=1;jettySize=auto;html=1;" edge="1" source="_OgBhQzUPCrYew9Ys8lD-120" target="_OgBhQzUPCrYew9Ys8lD-132" parent="1">
          <mxGeometry relative="1" as="geometry" />
        </mxCell>
        <mxCell id="_OgBhQzUPCrYew9Ys8lD-120" value="Superloop" style="rhombus;whiteSpace=wrap;html=1;fontSize=12;fontFamily=Calibri;" vertex="1" parent="1">
          <mxGeometry x="-1644" y="-377" width="67" height="63.3" as="geometry" />
        </mxCell>
        <mxCell id="_OgBhQzUPCrYew9Ys8lD-121" style="edgeStyle=none;curved=1;rounded=0;orthogonalLoop=1;jettySize=auto;html=1;entryX=1;entryY=0.5;entryDx=0;entryDy=0;fontSize=12;startSize=8;endSize=8;exitX=1;exitY=0.5;exitDx=0;exitDy=0;" edge="1" source="_OgBhQzUPCrYew9Ys8lD-123" target="_OgBhQzUPCrYew9Ys8lD-120" parent="1">
          <mxGeometry relative="1" as="geometry">
            <mxPoint x="-1508.5" y="-106.20000000000005" as="targetPoint" />
            <Array as="points">
              <mxPoint x="-1432" y="-112.70000000000005" />
              <mxPoint x="-1464" y="-239.7" />
            </Array>
          </mxGeometry>
        </mxCell>
        <mxCell id="_OgBhQzUPCrYew9Ys8lD-122" style="edgeStyle=none;curved=1;rounded=0;orthogonalLoop=1;jettySize=auto;html=1;entryX=0.5;entryY=0;entryDx=0;entryDy=0;fontSize=12;startSize=8;endSize=8;" edge="1" source="_OgBhQzUPCrYew9Ys8lD-123" target="_OgBhQzUPCrYew9Ys8lD-126" parent="1">
          <mxGeometry relative="1" as="geometry" />
        </mxCell>
        <mxCell id="_OgBhQzUPCrYew9Ys8lD-123" value="case `&lt;b&gt;&lt;i&gt;IDLE&lt;/i&gt;&lt;/b&gt;`" style="rhombus;whiteSpace=wrap;html=1;fontSize=12;fontFamily=Calibri;fillColor=#fff2cc;strokeColor=#d6b656;" vertex="1" parent="1">
          <mxGeometry x="-1654.75" y="-170.70000000000005" width="88.5" height="89" as="geometry" />
        </mxCell>
        <mxCell id="_OgBhQzUPCrYew9Ys8lD-124" value="" style="edgeStyle=orthogonalEdgeStyle;rounded=0;orthogonalLoop=1;jettySize=auto;html=1;" edge="1" source="_OgBhQzUPCrYew9Ys8lD-126" target="_OgBhQzUPCrYew9Ys8lD-136" parent="1">
          <mxGeometry relative="1" as="geometry" />
        </mxCell>
        <mxCell id="_OgBhQzUPCrYew9Ys8lD-125" value="" style="edgeStyle=orthogonalEdgeStyle;rounded=0;orthogonalLoop=1;jettySize=auto;html=1;" edge="1" source="_OgBhQzUPCrYew9Ys8lD-126" target="_OgBhQzUPCrYew9Ys8lD-141" parent="1">
          <mxGeometry relative="1" as="geometry" />
        </mxCell>
        <mxCell id="_OgBhQzUPCrYew9Ys8lD-126" value="case `&lt;b&gt;&lt;i&gt;TX_COMPLETE&lt;/i&gt;&lt;/b&gt;`" style="rhombus;whiteSpace=wrap;html=1;fontSize=12;fontFamily=Calibri;fillColor=#fff2cc;strokeColor=#d6b656;" vertex="1" parent="1">
          <mxGeometry x="-1669" y="-49.700000000000045" width="117" height="78" as="geometry" />
        </mxCell>
        <mxCell id="_OgBhQzUPCrYew9Ys8lD-127" value="True" style="text;html=1;strokeColor=none;fillColor=none;align=center;verticalAlign=middle;whiteSpace=wrap;rounded=0;fontSize=12;fontFamily=Calibri;" vertex="1" parent="1">
          <mxGeometry x="-1570.5" y="-143.70000000000005" width="39" height="16" as="geometry" />
        </mxCell>
        <mxCell id="_OgBhQzUPCrYew9Ys8lD-128" value="True" style="text;html=1;strokeColor=none;fillColor=none;align=center;verticalAlign=middle;whiteSpace=wrap;rounded=0;fontSize=12;fontFamily=Calibri;" vertex="1" parent="1">
          <mxGeometry x="-1566.25" y="-32.35000000000002" width="39" height="16" as="geometry" />
        </mxCell>
        <mxCell id="_OgBhQzUPCrYew9Ys8lD-129" value="False" style="text;html=1;strokeColor=none;fillColor=none;align=center;verticalAlign=middle;whiteSpace=wrap;rounded=0;fontSize=12;fontFamily=Calibri;" vertex="1" parent="1">
          <mxGeometry x="-1654.75" y="41.30000000000007" width="39" height="16" as="geometry" />
        </mxCell>
        <mxCell id="_OgBhQzUPCrYew9Ys8lD-130" value="False" style="text;html=1;strokeColor=none;fillColor=none;align=center;verticalAlign=middle;whiteSpace=wrap;rounded=0;fontSize=12;fontFamily=Calibri;" vertex="1" parent="1">
          <mxGeometry x="-1659" y="-81.70000000000005" width="39" height="16" as="geometry" />
        </mxCell>
        <mxCell id="_OgBhQzUPCrYew9Ys8lD-131" value="" style="edgeStyle=orthogonalEdgeStyle;rounded=0;orthogonalLoop=1;jettySize=auto;html=1;" edge="1" source="_OgBhQzUPCrYew9Ys8lD-132" target="_OgBhQzUPCrYew9Ys8lD-134" parent="1">
          <mxGeometry relative="1" as="geometry" />
        </mxCell>
        <UserObject label="&lt;div style=&quot;&quot;&gt;&lt;span style=&quot;font-size: 11.29px;&quot;&gt;call BCM_dispatcher()&lt;br&gt;for current instances&lt;/span&gt;&lt;/div&gt;" Function="EN_DIO_Error_T DIO_toggle(uint8_t pinNumber, EN_DIO_PORT_T portNumber);  " tags="Flowchart" id="_OgBhQzUPCrYew9Ys8lD-132">
          <mxCell style="verticalAlign=middle;align=center;overflow=width;vsdxID=274;fillColor=#d5e8d4;shape=stencil(nZBLDoAgDERP0z3SIyjew0SURgSD+Lu9kMZoXLhwN9O+tukAlrNpJg1SzDH4QW/URgNYgZTkjA4UkwJUgGXng+6DX1zLfmoymdXo17xh5zmRJ6Q42BWCfc2oJfdAr+Yv+AP9Cb7OJ3H/2JG1HNGz/84klThPVCc=);strokeColor=#82b366;spacingTop=-1;spacingBottom=-1;spacingLeft=-1;spacingRight=-1;points=[[0,0.5,0],[1,0.5,0],[0.5,1,0],[0.5,0,0]];labelBackgroundColor=none;rounded=1;html=1;whiteSpace=wrap;fontFamily=Calibri;" vertex="1" parent="1">
            <mxGeometry x="-1681.25" y="-289.34999999999997" width="141.5" height="35" as="geometry" />
          </mxCell>
        </UserObject>
        <mxCell id="_OgBhQzUPCrYew9Ys8lD-133" value="" style="edgeStyle=orthogonalEdgeStyle;rounded=0;orthogonalLoop=1;jettySize=auto;html=1;" edge="1" source="_OgBhQzUPCrYew9Ys8lD-134" target="_OgBhQzUPCrYew9Ys8lD-123" parent="1">
          <mxGeometry relative="1" as="geometry" />
        </mxCell>
        <UserObject label="&lt;div style=&quot;&quot;&gt;&lt;span style=&quot;font-size: 11.29px;&quot;&gt;switch `app_events`&lt;/span&gt;&lt;/div&gt;" Function="EN_DIO_Error_T DIO_toggle(uint8_t pinNumber, EN_DIO_PORT_T portNumber);  " tags="Flowchart" id="_OgBhQzUPCrYew9Ys8lD-134">
          <mxCell style="verticalAlign=middle;align=center;overflow=width;vsdxID=274;fillColor=#d5e8d4;shape=stencil(nZBLDoAgDERP0z3SIyjew0SURgSD+Lu9kMZoXLhwN9O+tukAlrNpJg1SzDH4QW/URgNYgZTkjA4UkwJUgGXng+6DX1zLfmoymdXo17xh5zmRJ6Q42BWCfc2oJfdAr+Yv+AP9Cb7OJ3H/2JG1HNGz/84klThPVCc=);strokeColor=#82b366;spacingTop=-1;spacingBottom=-1;spacingLeft=-1;spacingRight=-1;points=[[0,0.5,0],[1,0.5,0],[0.5,1,0],[0.5,0,0]];labelBackgroundColor=none;rounded=1;html=1;whiteSpace=wrap;fontFamily=Calibri;" vertex="1" parent="1">
            <mxGeometry x="-1681.25" y="-227.15000000000003" width="141.5" height="35" as="geometry" />
          </mxCell>
        </UserObject>
        <mxCell id="_OgBhQzUPCrYew9Ys8lD-135" value="" style="edgeStyle=orthogonalEdgeStyle;rounded=0;orthogonalLoop=1;jettySize=auto;html=1;" edge="1" source="_OgBhQzUPCrYew9Ys8lD-136" target="_OgBhQzUPCrYew9Ys8lD-138" parent="1">
          <mxGeometry relative="1" as="geometry" />
        </mxCell>
        <mxCell id="_OgBhQzUPCrYew9Ys8lD-136" value="Toggle Send LED" style="shape=parallelogram;perimeter=parallelogramPerimeter;whiteSpace=wrap;html=1;fixedSize=1;fillColor=#e1d5e7;strokeColor=#9673a6;" vertex="1" parent="1">
          <mxGeometry x="-1513" y="-31.700000000000045" width="148" height="42" as="geometry" />
        </mxCell>
        <mxCell id="_OgBhQzUPCrYew9Ys8lD-137" style="edgeStyle=orthogonalEdgeStyle;rounded=0;orthogonalLoop=1;jettySize=auto;html=1;entryX=1;entryY=0.5;entryDx=0;entryDy=0;exitX=1;exitY=0.5;exitDx=0;exitDy=0;exitPerimeter=0;" edge="1" source="_OgBhQzUPCrYew9Ys8lD-138" target="_OgBhQzUPCrYew9Ys8lD-120" parent="1">
          <mxGeometry relative="1" as="geometry" />
        </mxCell>
        <UserObject label="&lt;div style=&quot;&quot;&gt;&lt;span style=&quot;font-size: 11.29px;&quot;&gt;set app_state = `IDLE`&lt;/span&gt;&lt;/div&gt;" Function="EN_DIO_Error_T DIO_toggle(uint8_t pinNumber, EN_DIO_PORT_T portNumber);  " tags="Flowchart" id="_OgBhQzUPCrYew9Ys8lD-138">
          <mxCell style="verticalAlign=middle;align=center;overflow=width;vsdxID=274;fillColor=#d5e8d4;shape=stencil(nZBLDoAgDERP0z3SIyjew0SURgSD+Lu9kMZoXLhwN9O+tukAlrNpJg1SzDH4QW/URgNYgZTkjA4UkwJUgGXng+6DX1zLfmoymdXo17xh5zmRJ6Q42BWCfc2oJfdAr+Yv+AP9Cb7OJ3H/2JG1HNGz/84klThPVCc=);strokeColor=#82b366;spacingTop=-1;spacingBottom=-1;spacingLeft=-1;spacingRight=-1;points=[[0,0.5,0],[1,0.5,0],[0.5,1,0],[0.5,0,0]];labelBackgroundColor=none;rounded=1;html=1;whiteSpace=wrap;fontFamily=Calibri;" vertex="1" parent="1">
            <mxGeometry x="-1509.75" y="35.5" width="141.5" height="35" as="geometry" />
          </mxCell>
        </UserObject>
        <mxCell id="_OgBhQzUPCrYew9Ys8lD-139" value="" style="edgeStyle=orthogonalEdgeStyle;rounded=0;orthogonalLoop=1;jettySize=auto;html=1;" edge="1" source="_OgBhQzUPCrYew9Ys8lD-141" target="_OgBhQzUPCrYew9Ys8lD-144" parent="1">
          <mxGeometry relative="1" as="geometry" />
        </mxCell>
        <mxCell id="_OgBhQzUPCrYew9Ys8lD-140" value="" style="edgeStyle=orthogonalEdgeStyle;rounded=0;orthogonalLoop=1;jettySize=auto;html=1;" edge="1" source="_OgBhQzUPCrYew9Ys8lD-141" target="_OgBhQzUPCrYew9Ys8lD-149" parent="1">
          <mxGeometry relative="1" as="geometry" />
        </mxCell>
        <mxCell id="_OgBhQzUPCrYew9Ys8lD-141" value="case `&lt;b&gt;&lt;i&gt;RX_COMPLETE&lt;/i&gt;&lt;/b&gt;`" style="rhombus;whiteSpace=wrap;html=1;fontSize=12;fontFamily=Calibri;fillColor=#fff2cc;strokeColor=#d6b656;" vertex="1" parent="1">
          <mxGeometry x="-1669" y="72.29999999999995" width="117" height="78" as="geometry" />
        </mxCell>
        <mxCell id="_OgBhQzUPCrYew9Ys8lD-142" value="True" style="text;html=1;strokeColor=none;fillColor=none;align=center;verticalAlign=middle;whiteSpace=wrap;rounded=0;fontSize=12;fontFamily=Calibri;" vertex="1" parent="1">
          <mxGeometry x="-1556" y="88.29999999999995" width="39" height="16" as="geometry" />
        </mxCell>
        <mxCell id="_OgBhQzUPCrYew9Ys8lD-143" value="" style="edgeStyle=orthogonalEdgeStyle;rounded=0;orthogonalLoop=1;jettySize=auto;html=1;" edge="1" source="_OgBhQzUPCrYew9Ys8lD-144" target="_OgBhQzUPCrYew9Ys8lD-146" parent="1">
          <mxGeometry relative="1" as="geometry" />
        </mxCell>
        <mxCell id="_OgBhQzUPCrYew9Ys8lD-144" value="Toggle Receive LED" style="shape=parallelogram;perimeter=parallelogramPerimeter;whiteSpace=wrap;html=1;fixedSize=1;fillColor=#e1d5e7;strokeColor=#9673a6;" vertex="1" parent="1">
          <mxGeometry x="-1519" y="90.29999999999995" width="148" height="42" as="geometry" />
        </mxCell>
        <mxCell id="_OgBhQzUPCrYew9Ys8lD-145" style="edgeStyle=orthogonalEdgeStyle;rounded=0;orthogonalLoop=1;jettySize=auto;html=1;entryX=1;entryY=0.5;entryDx=0;entryDy=0;exitX=1;exitY=0.5;exitDx=0;exitDy=0;exitPerimeter=0;" edge="1" source="_OgBhQzUPCrYew9Ys8lD-146" target="_OgBhQzUPCrYew9Ys8lD-120" parent="1">
          <mxGeometry relative="1" as="geometry">
            <Array as="points">
              <mxPoint x="-1317" y="174" />
              <mxPoint x="-1317" y="-346" />
              <mxPoint x="-1577" y="-346" />
            </Array>
          </mxGeometry>
        </mxCell>
        <UserObject label="&lt;div style=&quot;&quot;&gt;&lt;span style=&quot;font-size: 11.29px;&quot;&gt;set app_state = `PENDING_REC`&lt;/span&gt;&lt;/div&gt;" Function="EN_DIO_Error_T DIO_toggle(uint8_t pinNumber, EN_DIO_PORT_T portNumber);  " tags="Flowchart" id="_OgBhQzUPCrYew9Ys8lD-146">
          <mxCell style="verticalAlign=middle;align=center;overflow=width;vsdxID=274;fillColor=#d5e8d4;shape=stencil(nZBLDoAgDERP0z3SIyjew0SURgSD+Lu9kMZoXLhwN9O+tukAlrNpJg1SzDH4QW/URgNYgZTkjA4UkwJUgGXng+6DX1zLfmoymdXo17xh5zmRJ6Q42BWCfc2oJfdAr+Yv+AP9Cb7OJ3H/2JG1HNGz/84klThPVCc=);strokeColor=#82b366;spacingTop=-1;spacingBottom=-1;spacingLeft=-1;spacingRight=-1;points=[[0,0.5,0],[1,0.5,0],[0.5,1,0],[0.5,0,0]];labelBackgroundColor=none;rounded=1;html=1;whiteSpace=wrap;fontFamily=Calibri;" vertex="1" parent="1">
            <mxGeometry x="-1529" y="156.29999999999995" width="168" height="35" as="geometry" />
          </mxCell>
        </UserObject>
        <mxCell id="_OgBhQzUPCrYew9Ys8lD-147" value="" style="edgeStyle=orthogonalEdgeStyle;rounded=0;orthogonalLoop=1;jettySize=auto;html=1;" edge="1" source="_OgBhQzUPCrYew9Ys8lD-149" target="_OgBhQzUPCrYew9Ys8lD-153" parent="1">
          <mxGeometry relative="1" as="geometry" />
        </mxCell>
        <mxCell id="_OgBhQzUPCrYew9Ys8lD-148" style="edgeStyle=orthogonalEdgeStyle;rounded=0;orthogonalLoop=1;jettySize=auto;html=1;entryX=0;entryY=0.5;entryDx=0;entryDy=0;" edge="1" source="_OgBhQzUPCrYew9Ys8lD-149" target="_OgBhQzUPCrYew9Ys8lD-120" parent="1">
          <mxGeometry relative="1" as="geometry">
            <Array as="points">
              <mxPoint x="-1701" y="282.29999999999995" />
              <mxPoint x="-1701" y="-345.70000000000005" />
              <mxPoint x="-1644" y="-345.70000000000005" />
            </Array>
          </mxGeometry>
        </mxCell>
        <mxCell id="_OgBhQzUPCrYew9Ys8lD-149" value="case `&lt;b&gt;&lt;i&gt;PENDING_REC&lt;/i&gt;&lt;/b&gt;`" style="rhombus;whiteSpace=wrap;html=1;fontSize=12;fontFamily=Calibri;fillColor=#fff2cc;strokeColor=#d6b656;" vertex="1" parent="1">
          <mxGeometry x="-1669" y="223.29999999999995" width="117" height="78" as="geometry" />
        </mxCell>
        <mxCell id="_OgBhQzUPCrYew9Ys8lD-150" value="False" style="text;html=1;strokeColor=none;fillColor=none;align=center;verticalAlign=middle;whiteSpace=wrap;rounded=0;fontSize=12;fontFamily=Calibri;" vertex="1" parent="1">
          <mxGeometry x="-1661" y="198.30000000000007" width="39" height="16" as="geometry" />
        </mxCell>
        <mxCell id="_OgBhQzUPCrYew9Ys8lD-151" value="True" style="text;html=1;strokeColor=none;fillColor=none;align=center;verticalAlign=middle;whiteSpace=wrap;rounded=0;fontSize=12;fontFamily=Calibri;" vertex="1" parent="1">
          <mxGeometry x="-1556" y="236.29999999999995" width="39" height="16" as="geometry" />
        </mxCell>
        <mxCell id="_OgBhQzUPCrYew9Ys8lD-152" style="edgeStyle=orthogonalEdgeStyle;rounded=0;orthogonalLoop=1;jettySize=auto;html=1;entryX=0.5;entryY=0;entryDx=0;entryDy=0;entryPerimeter=0;" edge="1" source="_OgBhQzUPCrYew9Ys8lD-153" target="_OgBhQzUPCrYew9Ys8lD-155" parent="1">
          <mxGeometry relative="1" as="geometry" />
        </mxCell>
        <UserObject label="&lt;div style=&quot;&quot;&gt;&lt;span style=&quot;font-size: 11.29px;&quot;&gt;(BCM_receive) receive data&lt;/span&gt;&lt;/div&gt;" Function="EN_DIO_Error_T DIO_toggle(uint8_t pinNumber, EN_DIO_PORT_T portNumber);  " tags="Flowchart" id="_OgBhQzUPCrYew9Ys8lD-153">
          <mxCell style="verticalAlign=middle;align=center;overflow=width;vsdxID=274;fillColor=#d5e8d4;shape=stencil(nZBLDoAgDERP0z3SIyjew0SURgSD+Lu9kMZoXLhwN9O+tukAlrNpJg1SzDH4QW/URgNYgZTkjA4UkwJUgGXng+6DX1zLfmoymdXo17xh5zmRJ6Q42BWCfc2oJfdAr+Yv+AP9Cb7OJ3H/2JG1HNGz/84klThPVCc=);strokeColor=#82b366;spacingTop=-1;spacingBottom=-1;spacingLeft=-1;spacingRight=-1;points=[[0,0.5,0],[1,0.5,0],[0.5,1,0],[0.5,0,0]];labelBackgroundColor=none;rounded=1;html=1;whiteSpace=wrap;fontFamily=Calibri;" vertex="1" parent="1">
            <mxGeometry x="-1511.5" y="244.79999999999995" width="168" height="35" as="geometry" />
          </mxCell>
        </UserObject>
        <UserObject label="&lt;div style=&quot;&quot;&gt;&lt;span style=&quot;font-size: 11.29px;&quot;&gt;(BCM_send) send data back&lt;/span&gt;&lt;/div&gt;" Function="EN_DIO_Error_T DIO_toggle(uint8_t pinNumber, EN_DIO_PORT_T portNumber);  " tags="Flowchart" id="_OgBhQzUPCrYew9Ys8lD-155">
          <mxCell style="verticalAlign=middle;align=center;overflow=width;vsdxID=274;fillColor=#d5e8d4;shape=stencil(nZBLDoAgDERP0z3SIyjew0SURgSD+Lu9kMZoXLhwN9O+tukAlrNpJg1SzDH4QW/URgNYgZTkjA4UkwJUgGXng+6DX1zLfmoymdXo17xh5zmRJ6Q42BWCfc2oJfdAr+Yv+AP9Cb7OJ3H/2JG1HNGz/84klThPVCc=);strokeColor=#82b366;spacingTop=-1;spacingBottom=-1;spacingLeft=-1;spacingRight=-1;points=[[0,0.5,0],[1,0.5,0],[0.5,1,0],[0.5,0,0]];labelBackgroundColor=none;rounded=1;html=1;whiteSpace=wrap;fontFamily=Calibri;" vertex="1" parent="1">
            <mxGeometry x="-1511.5" y="301.29999999999995" width="168" height="35" as="geometry" />
          </mxCell>
        </UserObject>
        <mxCell id="_OgBhQzUPCrYew9Ys8lD-156" style="edgeStyle=orthogonalEdgeStyle;rounded=0;orthogonalLoop=1;jettySize=auto;html=1;entryX=1;entryY=0.5;entryDx=0;entryDy=0;exitX=1;exitY=0.5;exitDx=0;exitDy=0;exitPerimeter=0;" edge="1" source="_OgBhQzUPCrYew9Ys8lD-155" target="_OgBhQzUPCrYew9Ys8lD-120" parent="1">
          <mxGeometry relative="1" as="geometry">
            <Array as="points">
              <mxPoint x="-1344" y="320" />
              <mxPoint x="-1299" y="320" />
              <mxPoint x="-1299" y="-346" />
              <mxPoint x="-1577" y="-346" />
            </Array>
            <mxPoint x="-1356.75" y="371.8000000000002" as="sourcePoint" />
          </mxGeometry>
        </mxCell>
        <mxCell id="_OgBhQzUPCrYew9Ys8lD-158" value="False" style="text;html=1;strokeColor=none;fillColor=none;align=center;verticalAlign=middle;whiteSpace=wrap;rounded=0;fontSize=12;fontFamily=Calibri;" vertex="1" parent="1">
          <mxGeometry x="-1693.75" y="279.8000000000002" width="39" height="16" as="geometry" />
        </mxCell>
        <mxCell id="_OgBhQzUPCrYew9Ys8lD-160" style="edgeStyle=orthogonalEdgeStyle;rounded=0;orthogonalLoop=1;jettySize=auto;html=1;entryX=0.5;entryY=0;entryDx=0;entryDy=0;" edge="1" source="_OgBhQzUPCrYew9Ys8lD-161" target="_OgBhQzUPCrYew9Ys8lD-167" parent="1">
          <mxGeometry relative="1" as="geometry" />
        </mxCell>
        <mxCell id="_OgBhQzUPCrYew9Ys8lD-215" style="edgeStyle=orthogonalEdgeStyle;rounded=0;orthogonalLoop=1;jettySize=auto;html=1;entryX=0.5;entryY=0;entryDx=0;entryDy=0;" edge="1" parent="1" source="_OgBhQzUPCrYew9Ys8lD-161" target="_OgBhQzUPCrYew9Ys8lD-120">
          <mxGeometry relative="1" as="geometry" />
        </mxCell>
        <mxCell id="_OgBhQzUPCrYew9Ys8lD-161" value="#TEST_MODE" style="rhombus;whiteSpace=wrap;html=1;fontSize=12;fontFamily=Calibri;fillColor=#fff2cc;strokeColor=#d6b656;" vertex="1" parent="1">
          <mxGeometry x="-1804.75" y="-485.05000000000007" width="88.5" height="89" as="geometry" />
        </mxCell>
        <mxCell id="_OgBhQzUPCrYew9Ys8lD-162" value="True" style="text;html=1;strokeColor=none;fillColor=none;align=center;verticalAlign=middle;whiteSpace=wrap;rounded=0;" vertex="1" parent="1">
          <mxGeometry x="-1681.25" y="-459.05" width="41" height="17" as="geometry" />
        </mxCell>
        <mxCell id="_OgBhQzUPCrYew9Ys8lD-166" value="" style="edgeStyle=orthogonalEdgeStyle;rounded=0;orthogonalLoop=1;jettySize=auto;html=1;" edge="1" source="_OgBhQzUPCrYew9Ys8lD-167" target="_OgBhQzUPCrYew9Ys8lD-179" parent="1">
          <mxGeometry relative="1" as="geometry" />
        </mxCell>
        <mxCell id="_OgBhQzUPCrYew9Ys8lD-167" value="Superloop" style="rhombus;whiteSpace=wrap;html=1;fontSize=12;fontFamily=Calibri;" vertex="1" parent="1">
          <mxGeometry x="-2171" y="-388.05" width="67" height="63.3" as="geometry" />
        </mxCell>
        <mxCell id="_OgBhQzUPCrYew9Ys8lD-168" style="edgeStyle=none;curved=1;rounded=0;orthogonalLoop=1;jettySize=auto;html=1;entryX=1;entryY=0.5;entryDx=0;entryDy=0;fontSize=12;startSize=8;endSize=8;exitX=1;exitY=0.5;exitDx=0;exitDy=0;" edge="1" source="_OgBhQzUPCrYew9Ys8lD-170" target="_OgBhQzUPCrYew9Ys8lD-167" parent="1">
          <mxGeometry relative="1" as="geometry">
            <mxPoint x="-2035.5" y="-117.25" as="targetPoint" />
            <Array as="points">
              <mxPoint x="-1959" y="-123.75" />
              <mxPoint x="-1991" y="-250.75000000000006" />
            </Array>
          </mxGeometry>
        </mxCell>
        <mxCell id="_OgBhQzUPCrYew9Ys8lD-169" style="edgeStyle=none;curved=1;rounded=0;orthogonalLoop=1;jettySize=auto;html=1;entryX=0.5;entryY=0;entryDx=0;entryDy=0;fontSize=12;startSize=8;endSize=8;" edge="1" source="_OgBhQzUPCrYew9Ys8lD-170" target="_OgBhQzUPCrYew9Ys8lD-173" parent="1">
          <mxGeometry relative="1" as="geometry" />
        </mxCell>
        <mxCell id="_OgBhQzUPCrYew9Ys8lD-170" value="case `&lt;b&gt;&lt;i&gt;IDLE&lt;/i&gt;&lt;/b&gt;`" style="rhombus;whiteSpace=wrap;html=1;fontSize=12;fontFamily=Calibri;fillColor=#fff2cc;strokeColor=#d6b656;" vertex="1" parent="1">
          <mxGeometry x="-2181.75" y="-181.75000000000006" width="88.5" height="89" as="geometry" />
        </mxCell>
        <mxCell id="_OgBhQzUPCrYew9Ys8lD-171" value="" style="edgeStyle=orthogonalEdgeStyle;rounded=0;orthogonalLoop=1;jettySize=auto;html=1;" edge="1" source="_OgBhQzUPCrYew9Ys8lD-173" target="_OgBhQzUPCrYew9Ys8lD-183" parent="1">
          <mxGeometry relative="1" as="geometry" />
        </mxCell>
        <mxCell id="_OgBhQzUPCrYew9Ys8lD-172" value="" style="edgeStyle=orthogonalEdgeStyle;rounded=0;orthogonalLoop=1;jettySize=auto;html=1;" edge="1" source="_OgBhQzUPCrYew9Ys8lD-173" target="_OgBhQzUPCrYew9Ys8lD-188" parent="1">
          <mxGeometry relative="1" as="geometry" />
        </mxCell>
        <mxCell id="_OgBhQzUPCrYew9Ys8lD-173" value="case `&lt;b&gt;&lt;i&gt;TX_COMPLETE&lt;/i&gt;&lt;/b&gt;`" style="rhombus;whiteSpace=wrap;html=1;fontSize=12;fontFamily=Calibri;fillColor=#fff2cc;strokeColor=#d6b656;" vertex="1" parent="1">
          <mxGeometry x="-2196" y="-60.75" width="117" height="78" as="geometry" />
        </mxCell>
        <mxCell id="_OgBhQzUPCrYew9Ys8lD-174" value="True" style="text;html=1;strokeColor=none;fillColor=none;align=center;verticalAlign=middle;whiteSpace=wrap;rounded=0;fontSize=12;fontFamily=Calibri;" vertex="1" parent="1">
          <mxGeometry x="-2097.5" y="-154.75" width="39" height="16" as="geometry" />
        </mxCell>
        <mxCell id="_OgBhQzUPCrYew9Ys8lD-175" value="True" style="text;html=1;strokeColor=none;fillColor=none;align=center;verticalAlign=middle;whiteSpace=wrap;rounded=0;fontSize=12;fontFamily=Calibri;" vertex="1" parent="1">
          <mxGeometry x="-2093.25" y="-43.39999999999998" width="39" height="16" as="geometry" />
        </mxCell>
        <mxCell id="_OgBhQzUPCrYew9Ys8lD-176" value="False" style="text;html=1;strokeColor=none;fillColor=none;align=center;verticalAlign=middle;whiteSpace=wrap;rounded=0;fontSize=12;fontFamily=Calibri;" vertex="1" parent="1">
          <mxGeometry x="-2181.75" y="30.250000000000114" width="39" height="16" as="geometry" />
        </mxCell>
        <mxCell id="_OgBhQzUPCrYew9Ys8lD-177" value="False" style="text;html=1;strokeColor=none;fillColor=none;align=center;verticalAlign=middle;whiteSpace=wrap;rounded=0;fontSize=12;fontFamily=Calibri;" vertex="1" parent="1">
          <mxGeometry x="-2186" y="-92.75" width="39" height="16" as="geometry" />
        </mxCell>
        <mxCell id="_OgBhQzUPCrYew9Ys8lD-178" value="" style="edgeStyle=orthogonalEdgeStyle;rounded=0;orthogonalLoop=1;jettySize=auto;html=1;" edge="1" source="_OgBhQzUPCrYew9Ys8lD-179" target="_OgBhQzUPCrYew9Ys8lD-181" parent="1">
          <mxGeometry relative="1" as="geometry" />
        </mxCell>
        <UserObject label="&lt;div style=&quot;&quot;&gt;&lt;span style=&quot;font-size: 11.29px;&quot;&gt;call BCM_dispatcher()&lt;br&gt;for current instances&lt;/span&gt;&lt;/div&gt;" Function="EN_DIO_Error_T DIO_toggle(uint8_t pinNumber, EN_DIO_PORT_T portNumber);  " tags="Flowchart" id="_OgBhQzUPCrYew9Ys8lD-179">
          <mxCell style="verticalAlign=middle;align=center;overflow=width;vsdxID=274;fillColor=#d5e8d4;shape=stencil(nZBLDoAgDERP0z3SIyjew0SURgSD+Lu9kMZoXLhwN9O+tukAlrNpJg1SzDH4QW/URgNYgZTkjA4UkwJUgGXng+6DX1zLfmoymdXo17xh5zmRJ6Q42BWCfc2oJfdAr+Yv+AP9Cb7OJ3H/2JG1HNGz/84klThPVCc=);strokeColor=#82b366;spacingTop=-1;spacingBottom=-1;spacingLeft=-1;spacingRight=-1;points=[[0,0.5,0],[1,0.5,0],[0.5,1,0],[0.5,0,0]];labelBackgroundColor=none;rounded=1;html=1;whiteSpace=wrap;fontFamily=Calibri;" vertex="1" parent="1">
            <mxGeometry x="-2208.25" y="-300.40000000000003" width="141.5" height="35" as="geometry" />
          </mxCell>
        </UserObject>
        <mxCell id="_OgBhQzUPCrYew9Ys8lD-180" value="" style="edgeStyle=orthogonalEdgeStyle;rounded=0;orthogonalLoop=1;jettySize=auto;html=1;" edge="1" source="_OgBhQzUPCrYew9Ys8lD-181" target="_OgBhQzUPCrYew9Ys8lD-170" parent="1">
          <mxGeometry relative="1" as="geometry" />
        </mxCell>
        <UserObject label="&lt;div style=&quot;&quot;&gt;&lt;span style=&quot;font-size: 11.29px;&quot;&gt;switch `app_events`&lt;/span&gt;&lt;/div&gt;" Function="EN_DIO_Error_T DIO_toggle(uint8_t pinNumber, EN_DIO_PORT_T portNumber);  " tags="Flowchart" id="_OgBhQzUPCrYew9Ys8lD-181">
          <mxCell style="verticalAlign=middle;align=center;overflow=width;vsdxID=274;fillColor=#d5e8d4;shape=stencil(nZBLDoAgDERP0z3SIyjew0SURgSD+Lu9kMZoXLhwN9O+tukAlrNpJg1SzDH4QW/URgNYgZTkjA4UkwJUgGXng+6DX1zLfmoymdXo17xh5zmRJ6Q42BWCfc2oJfdAr+Yv+AP9Cb7OJ3H/2JG1HNGz/84klThPVCc=);strokeColor=#82b366;spacingTop=-1;spacingBottom=-1;spacingLeft=-1;spacingRight=-1;points=[[0,0.5,0],[1,0.5,0],[0.5,1,0],[0.5,0,0]];labelBackgroundColor=none;rounded=1;html=1;whiteSpace=wrap;fontFamily=Calibri;" vertex="1" parent="1">
            <mxGeometry x="-2208.25" y="-238.2000000000001" width="141.5" height="35" as="geometry" />
          </mxCell>
        </UserObject>
        <mxCell id="_OgBhQzUPCrYew9Ys8lD-182" value="" style="edgeStyle=orthogonalEdgeStyle;rounded=0;orthogonalLoop=1;jettySize=auto;html=1;" edge="1" source="_OgBhQzUPCrYew9Ys8lD-183" target="_OgBhQzUPCrYew9Ys8lD-185" parent="1">
          <mxGeometry relative="1" as="geometry" />
        </mxCell>
        <mxCell id="_OgBhQzUPCrYew9Ys8lD-183" value="Toggle Send LED" style="shape=parallelogram;perimeter=parallelogramPerimeter;whiteSpace=wrap;html=1;fixedSize=1;fillColor=#e1d5e7;strokeColor=#9673a6;" vertex="1" parent="1">
          <mxGeometry x="-2040" y="-42.75" width="148" height="42" as="geometry" />
        </mxCell>
        <mxCell id="_OgBhQzUPCrYew9Ys8lD-184" style="edgeStyle=orthogonalEdgeStyle;rounded=0;orthogonalLoop=1;jettySize=auto;html=1;entryX=1;entryY=0.5;entryDx=0;entryDy=0;exitX=1;exitY=0.5;exitDx=0;exitDy=0;exitPerimeter=0;" edge="1" source="_OgBhQzUPCrYew9Ys8lD-185" target="_OgBhQzUPCrYew9Ys8lD-167" parent="1">
          <mxGeometry relative="1" as="geometry" />
        </mxCell>
        <UserObject label="&lt;div style=&quot;&quot;&gt;&lt;span style=&quot;font-size: 11.29px;&quot;&gt;set app_state = `IDLE`&lt;/span&gt;&lt;/div&gt;" Function="EN_DIO_Error_T DIO_toggle(uint8_t pinNumber, EN_DIO_PORT_T portNumber);  " tags="Flowchart" id="_OgBhQzUPCrYew9Ys8lD-185">
          <mxCell style="verticalAlign=middle;align=center;overflow=width;vsdxID=274;fillColor=#d5e8d4;shape=stencil(nZBLDoAgDERP0z3SIyjew0SURgSD+Lu9kMZoXLhwN9O+tukAlrNpJg1SzDH4QW/URgNYgZTkjA4UkwJUgGXng+6DX1zLfmoymdXo17xh5zmRJ6Q42BWCfc2oJfdAr+Yv+AP9Cb7OJ3H/2JG1HNGz/84klThPVCc=);strokeColor=#82b366;spacingTop=-1;spacingBottom=-1;spacingLeft=-1;spacingRight=-1;points=[[0,0.5,0],[1,0.5,0],[0.5,1,0],[0.5,0,0]];labelBackgroundColor=none;rounded=1;html=1;whiteSpace=wrap;fontFamily=Calibri;" vertex="1" parent="1">
            <mxGeometry x="-2036.75" y="24.450000000000045" width="141.5" height="35" as="geometry" />
          </mxCell>
        </UserObject>
        <mxCell id="_OgBhQzUPCrYew9Ys8lD-186" value="" style="edgeStyle=orthogonalEdgeStyle;rounded=0;orthogonalLoop=1;jettySize=auto;html=1;" edge="1" source="_OgBhQzUPCrYew9Ys8lD-188" target="_OgBhQzUPCrYew9Ys8lD-191" parent="1">
          <mxGeometry relative="1" as="geometry" />
        </mxCell>
        <mxCell id="_OgBhQzUPCrYew9Ys8lD-187" value="" style="edgeStyle=orthogonalEdgeStyle;rounded=0;orthogonalLoop=1;jettySize=auto;html=1;" edge="1" source="_OgBhQzUPCrYew9Ys8lD-188" target="_OgBhQzUPCrYew9Ys8lD-196" parent="1">
          <mxGeometry relative="1" as="geometry" />
        </mxCell>
        <mxCell id="_OgBhQzUPCrYew9Ys8lD-188" value="case `&lt;b&gt;&lt;i&gt;RX_COMPLETE&lt;/i&gt;&lt;/b&gt;`" style="rhombus;whiteSpace=wrap;html=1;fontSize=12;fontFamily=Calibri;fillColor=#fff2cc;strokeColor=#d6b656;" vertex="1" parent="1">
          <mxGeometry x="-2196" y="61.25" width="117" height="78" as="geometry" />
        </mxCell>
        <mxCell id="_OgBhQzUPCrYew9Ys8lD-189" value="True" style="text;html=1;strokeColor=none;fillColor=none;align=center;verticalAlign=middle;whiteSpace=wrap;rounded=0;fontSize=12;fontFamily=Calibri;" vertex="1" parent="1">
          <mxGeometry x="-2083" y="77.25" width="39" height="16" as="geometry" />
        </mxCell>
        <mxCell id="_OgBhQzUPCrYew9Ys8lD-190" value="" style="edgeStyle=orthogonalEdgeStyle;rounded=0;orthogonalLoop=1;jettySize=auto;html=1;" edge="1" source="_OgBhQzUPCrYew9Ys8lD-191" target="_OgBhQzUPCrYew9Ys8lD-193" parent="1">
          <mxGeometry relative="1" as="geometry" />
        </mxCell>
        <mxCell id="_OgBhQzUPCrYew9Ys8lD-191" value="Toggle Receive LED" style="shape=parallelogram;perimeter=parallelogramPerimeter;whiteSpace=wrap;html=1;fixedSize=1;fillColor=#e1d5e7;strokeColor=#9673a6;" vertex="1" parent="1">
          <mxGeometry x="-2046" y="79.25" width="148" height="42" as="geometry" />
        </mxCell>
        <mxCell id="_OgBhQzUPCrYew9Ys8lD-192" style="edgeStyle=orthogonalEdgeStyle;rounded=0;orthogonalLoop=1;jettySize=auto;html=1;entryX=1;entryY=0.5;entryDx=0;entryDy=0;exitX=1;exitY=0.5;exitDx=0;exitDy=0;exitPerimeter=0;" edge="1" source="_OgBhQzUPCrYew9Ys8lD-193" target="_OgBhQzUPCrYew9Ys8lD-167" parent="1">
          <mxGeometry relative="1" as="geometry">
            <Array as="points">
              <mxPoint x="-1844" y="162.95000000000005" />
              <mxPoint x="-1844" y="-357.05" />
              <mxPoint x="-2104" y="-357.05" />
            </Array>
          </mxGeometry>
        </mxCell>
        <UserObject label="&lt;div style=&quot;&quot;&gt;&lt;span style=&quot;font-size: 11.29px;&quot;&gt;set app_state = `PENDING_REC`&lt;/span&gt;&lt;/div&gt;" Function="EN_DIO_Error_T DIO_toggle(uint8_t pinNumber, EN_DIO_PORT_T portNumber);  " tags="Flowchart" id="_OgBhQzUPCrYew9Ys8lD-193">
          <mxCell style="verticalAlign=middle;align=center;overflow=width;vsdxID=274;fillColor=#d5e8d4;shape=stencil(nZBLDoAgDERP0z3SIyjew0SURgSD+Lu9kMZoXLhwN9O+tukAlrNpJg1SzDH4QW/URgNYgZTkjA4UkwJUgGXng+6DX1zLfmoymdXo17xh5zmRJ6Q42BWCfc2oJfdAr+Yv+AP9Cb7OJ3H/2JG1HNGz/84klThPVCc=);strokeColor=#82b366;spacingTop=-1;spacingBottom=-1;spacingLeft=-1;spacingRight=-1;points=[[0,0.5,0],[1,0.5,0],[0.5,1,0],[0.5,0,0]];labelBackgroundColor=none;rounded=1;html=1;whiteSpace=wrap;fontFamily=Calibri;" vertex="1" parent="1">
            <mxGeometry x="-2056" y="145.25" width="168" height="35" as="geometry" />
          </mxCell>
        </UserObject>
        <mxCell id="_OgBhQzUPCrYew9Ys8lD-194" value="" style="edgeStyle=orthogonalEdgeStyle;rounded=0;orthogonalLoop=1;jettySize=auto;html=1;" edge="1" source="_OgBhQzUPCrYew9Ys8lD-196" target="_OgBhQzUPCrYew9Ys8lD-200" parent="1">
          <mxGeometry relative="1" as="geometry" />
        </mxCell>
        <mxCell id="_OgBhQzUPCrYew9Ys8lD-195" style="edgeStyle=orthogonalEdgeStyle;rounded=0;orthogonalLoop=1;jettySize=auto;html=1;entryX=0;entryY=0.5;entryDx=0;entryDy=0;exitX=0;exitY=0.5;exitDx=0;exitDy=0;" edge="1" source="_OgBhQzUPCrYew9Ys8lD-196" target="_OgBhQzUPCrYew9Ys8lD-167" parent="1">
          <mxGeometry relative="1" as="geometry">
            <Array as="points">
              <mxPoint x="-2228" y="250.95000000000005" />
              <mxPoint x="-2228" y="-357.05" />
              <mxPoint x="-2171" y="-357.05" />
            </Array>
          </mxGeometry>
        </mxCell>
        <mxCell id="_OgBhQzUPCrYew9Ys8lD-196" value="case `&lt;b&gt;&lt;i&gt;PENDING_REC&lt;/i&gt;&lt;/b&gt;`" style="rhombus;whiteSpace=wrap;html=1;fontSize=12;fontFamily=Calibri;fillColor=#fff2cc;strokeColor=#d6b656;" vertex="1" parent="1">
          <mxGeometry x="-2196" y="212.25" width="117" height="78" as="geometry" />
        </mxCell>
        <mxCell id="_OgBhQzUPCrYew9Ys8lD-197" value="False" style="text;html=1;strokeColor=none;fillColor=none;align=center;verticalAlign=middle;whiteSpace=wrap;rounded=0;fontSize=12;fontFamily=Calibri;" vertex="1" parent="1">
          <mxGeometry x="-2181.75" y="169.95000000000016" width="39" height="16" as="geometry" />
        </mxCell>
        <mxCell id="_OgBhQzUPCrYew9Ys8lD-198" value="True" style="text;html=1;strokeColor=none;fillColor=none;align=center;verticalAlign=middle;whiteSpace=wrap;rounded=0;fontSize=12;fontFamily=Calibri;" vertex="1" parent="1">
          <mxGeometry x="-2083" y="225.25" width="39" height="16" as="geometry" />
        </mxCell>
        <mxCell id="_OgBhQzUPCrYew9Ys8lD-199" style="edgeStyle=orthogonalEdgeStyle;rounded=0;orthogonalLoop=1;jettySize=auto;html=1;entryX=0.5;entryY=0;entryDx=0;entryDy=0;entryPerimeter=0;" edge="1" source="_OgBhQzUPCrYew9Ys8lD-200" target="_OgBhQzUPCrYew9Ys8lD-202" parent="1">
          <mxGeometry relative="1" as="geometry" />
        </mxCell>
        <UserObject label="&lt;div style=&quot;&quot;&gt;&lt;span style=&quot;font-size: 11.29px;&quot;&gt;Retreive received data ptr&lt;/span&gt;&lt;/div&gt;&lt;div style=&quot;&quot;&gt;&lt;span style=&quot;font-size: 11.29px;&quot;&gt;&lt;b&gt;&lt;i&gt;BCM_receive()&lt;/i&gt;&lt;/b&gt;&lt;/span&gt;&lt;/div&gt;" Function="EN_DIO_Error_T DIO_toggle(uint8_t pinNumber, EN_DIO_PORT_T portNumber);  " tags="Flowchart" id="_OgBhQzUPCrYew9Ys8lD-200">
          <mxCell style="verticalAlign=middle;align=center;overflow=width;vsdxID=274;fillColor=#d5e8d4;shape=stencil(nZBLDoAgDERP0z3SIyjew0SURgSD+Lu9kMZoXLhwN9O+tukAlrNpJg1SzDH4QW/URgNYgZTkjA4UkwJUgGXng+6DX1zLfmoymdXo17xh5zmRJ6Q42BWCfc2oJfdAr+Yv+AP9Cb7OJ3H/2JG1HNGz/84klThPVCc=);strokeColor=#82b366;spacingTop=-1;spacingBottom=-1;spacingLeft=-1;spacingRight=-1;points=[[0,0.5,0],[1,0.5,0],[0.5,1,0],[0.5,0,0]];labelBackgroundColor=none;rounded=1;html=1;whiteSpace=wrap;fontFamily=Calibri;" vertex="1" parent="1">
            <mxGeometry x="-2038.5" y="233.75" width="168" height="35" as="geometry" />
          </mxCell>
        </UserObject>
        <mxCell id="_OgBhQzUPCrYew9Ys8lD-201" style="edgeStyle=orthogonalEdgeStyle;rounded=0;orthogonalLoop=1;jettySize=auto;html=1;entryX=0.5;entryY=0;entryDx=0;entryDy=0;entryPerimeter=0;" edge="1" source="_OgBhQzUPCrYew9Ys8lD-202" target="_OgBhQzUPCrYew9Ys8lD-205" parent="1">
          <mxGeometry relative="1" as="geometry" />
        </mxCell>
        <UserObject label="&lt;div style=&quot;&quot;&gt;&lt;span style=&quot;font-size: 11.29px;&quot;&gt;app_dequeue_match(received_data)&lt;br&gt;Returns &lt;b&gt;&lt;i&gt;match_id&lt;/i&gt;&lt;/b&gt;&lt;/span&gt;&lt;/div&gt;" Function="EN_DIO_Error_T DIO_toggle(uint8_t pinNumber, EN_DIO_PORT_T portNumber);  " tags="Flowchart" id="_OgBhQzUPCrYew9Ys8lD-202">
          <mxCell style="verticalAlign=middle;align=center;overflow=width;vsdxID=274;fillColor=#d5e8d4;shape=stencil(nZBLDoAgDERP0z3SIyjew0SURgSD+Lu9kMZoXLhwN9O+tukAlrNpJg1SzDH4QW/URgNYgZTkjA4UkwJUgGXng+6DX1zLfmoymdXo17xh5zmRJ6Q42BWCfc2oJfdAr+Yv+AP9Cb7OJ3H/2JG1HNGz/84klThPVCc=);strokeColor=#82b366;spacingTop=-1;spacingBottom=-1;spacingLeft=-1;spacingRight=-1;points=[[0,0.5,0],[1,0.5,0],[0.5,1,0],[0.5,0,0]];labelBackgroundColor=none;rounded=1;html=1;whiteSpace=wrap;fontFamily=Calibri;" vertex="1" parent="1">
            <mxGeometry x="-2046" y="290.25" width="183" height="35" as="geometry" />
          </mxCell>
        </UserObject>
        <mxCell id="_OgBhQzUPCrYew9Ys8lD-203" style="edgeStyle=orthogonalEdgeStyle;rounded=0;orthogonalLoop=1;jettySize=auto;html=1;entryX=1;entryY=0.5;entryDx=0;entryDy=0;exitX=1;exitY=0.5;exitDx=0;exitDy=0;exitPerimeter=0;" edge="1" source="_OgBhQzUPCrYew9Ys8lD-205" target="_OgBhQzUPCrYew9Ys8lD-167" parent="1">
          <mxGeometry relative="1" as="geometry">
            <Array as="points">
              <mxPoint x="-1826" y="360.95000000000005" />
              <mxPoint x="-1826" y="-357.05" />
              <mxPoint x="-2104" y="-357.05" />
            </Array>
          </mxGeometry>
        </mxCell>
        <mxCell id="_OgBhQzUPCrYew9Ys8lD-204" style="edgeStyle=orthogonalEdgeStyle;rounded=0;orthogonalLoop=1;jettySize=auto;html=1;entryX=0.5;entryY=0;entryDx=0;entryDy=0;" edge="1" source="_OgBhQzUPCrYew9Ys8lD-205" target="_OgBhQzUPCrYew9Ys8lD-210" parent="1">
          <mxGeometry relative="1" as="geometry" />
        </mxCell>
        <UserObject label="&lt;div style=&quot;&quot;&gt;&lt;span style=&quot;font-size: 11.29px;&quot;&gt;Switch (&lt;b&gt;&lt;i&gt;match_id&lt;/i&gt;&lt;/b&gt;)&lt;/span&gt;&lt;/div&gt;" Function="EN_DIO_Error_T DIO_toggle(uint8_t pinNumber, EN_DIO_PORT_T portNumber);  " tags="Flowchart" id="_OgBhQzUPCrYew9Ys8lD-205">
          <mxCell style="verticalAlign=middle;align=center;overflow=width;vsdxID=274;fillColor=#d5e8d4;shape=stencil(nZBLDoAgDERP0z3SIyjew0SURgSD+Lu9kMZoXLhwN9O+tukAlrNpJg1SzDH4QW/URgNYgZTkjA4UkwJUgGXng+6DX1zLfmoymdXo17xh5zmRJ6Q42BWCfc2oJfdAr+Yv+AP9Cb7OJ3H/2JG1HNGz/84klThPVCc=);strokeColor=#82b366;spacingTop=-1;spacingBottom=-1;spacingLeft=-1;spacingRight=-1;points=[[0,0.5,0],[1,0.5,0],[0.5,1,0],[0.5,0,0]];labelBackgroundColor=none;rounded=1;html=1;whiteSpace=wrap;fontFamily=Calibri;" vertex="1" parent="1">
            <mxGeometry x="-2009" y="343.25" width="109" height="25.7" as="geometry" />
          </mxCell>
        </UserObject>
        <mxCell id="_OgBhQzUPCrYew9Ys8lD-206" value="False" style="text;html=1;strokeColor=none;fillColor=none;align=center;verticalAlign=middle;whiteSpace=wrap;rounded=0;fontSize=12;fontFamily=Calibri;" vertex="1" parent="1">
          <mxGeometry x="-2229" y="233.75000000000023" width="39" height="16" as="geometry" />
        </mxCell>
        <mxCell id="_OgBhQzUPCrYew9Ys8lD-207" value="False" style="text;html=1;strokeColor=none;fillColor=none;align=center;verticalAlign=middle;whiteSpace=wrap;rounded=0;" vertex="1" parent="1">
          <mxGeometry x="-1863" y="-459.05" width="41" height="17" as="geometry" />
        </mxCell>
        <mxCell id="_OgBhQzUPCrYew9Ys8lD-208" style="edgeStyle=orthogonalEdgeStyle;rounded=0;orthogonalLoop=1;jettySize=auto;html=1;entryX=0.5;entryY=0;entryDx=0;entryDy=0;entryPerimeter=0;" edge="1" source="_OgBhQzUPCrYew9Ys8lD-210" target="_OgBhQzUPCrYew9Ys8lD-212" parent="1">
          <mxGeometry relative="1" as="geometry" />
        </mxCell>
        <mxCell id="_OgBhQzUPCrYew9Ys8lD-209" style="edgeStyle=orthogonalEdgeStyle;rounded=0;orthogonalLoop=1;jettySize=auto;html=1;entryX=1;entryY=0.5;entryDx=0;entryDy=0;exitX=1;exitY=0.5;exitDx=0;exitDy=0;" edge="1" source="_OgBhQzUPCrYew9Ys8lD-210" target="_OgBhQzUPCrYew9Ys8lD-167" parent="1">
          <mxGeometry relative="1" as="geometry">
            <Array as="points">
              <mxPoint x="-1806" y="432.95000000000005" />
              <mxPoint x="-1806" y="-356.05" />
            </Array>
          </mxGeometry>
        </mxCell>
        <mxCell id="_OgBhQzUPCrYew9Ys8lD-210" value="case `&lt;b&gt;&lt;i&gt;SYN_CMD&lt;/i&gt;&lt;/b&gt;`" style="rhombus;whiteSpace=wrap;html=1;fontSize=12;fontFamily=Calibri;fillColor=#fff2cc;strokeColor=#d6b656;" vertex="1" parent="1">
          <mxGeometry x="-1995" y="394.95000000000005" width="81" height="76" as="geometry" />
        </mxCell>
        <mxCell id="_OgBhQzUPCrYew9Ys8lD-211" style="edgeStyle=orthogonalEdgeStyle;rounded=0;orthogonalLoop=1;jettySize=auto;html=1;entryX=1;entryY=0.5;entryDx=0;entryDy=0;exitX=1;exitY=0.5;exitDx=0;exitDy=0;exitPerimeter=0;" edge="1" source="_OgBhQzUPCrYew9Ys8lD-212" target="_OgBhQzUPCrYew9Ys8lD-167" parent="1">
          <mxGeometry relative="1" as="geometry">
            <Array as="points">
              <mxPoint x="-1790" y="502.95000000000005" />
              <mxPoint x="-1790" y="-356.05" />
            </Array>
          </mxGeometry>
        </mxCell>
        <UserObject label="&lt;div style=&quot;&quot;&gt;&lt;span style=&quot;font-size: 11.29px;&quot;&gt;BCM_send_n `&lt;b&gt;&lt;i&gt;ACK_CMD`&lt;/i&gt;&lt;/b&gt;&lt;/span&gt;&lt;/div&gt;" Function="EN_DIO_Error_T DIO_toggle(uint8_t pinNumber, EN_DIO_PORT_T portNumber);  " tags="Flowchart" id="_OgBhQzUPCrYew9Ys8lD-212">
          <mxCell style="verticalAlign=middle;align=center;overflow=width;vsdxID=274;fillColor=#d5e8d4;shape=stencil(nZBLDoAgDERP0z3SIyjew0SURgSD+Lu9kMZoXLhwN9O+tukAlrNpJg1SzDH4QW/URgNYgZTkjA4UkwJUgGXng+6DX1zLfmoymdXo17xh5zmRJ6Q42BWCfc2oJfdAr+Yv+AP9Cb7OJ3H/2JG1HNGz/84klThPVCc=);strokeColor=#82b366;spacingTop=-1;spacingBottom=-1;spacingLeft=-1;spacingRight=-1;points=[[0,0.5,0],[1,0.5,0],[0.5,1,0],[0.5,0,0]];labelBackgroundColor=none;rounded=1;html=1;whiteSpace=wrap;fontFamily=Calibri;" vertex="1" parent="1">
            <mxGeometry x="-2015" y="489.95000000000005" width="121" height="25.7" as="geometry" />
          </mxCell>
        </UserObject>
        <mxCell id="_OgBhQzUPCrYew9Ys8lD-213" value="True" style="text;html=1;strokeColor=none;fillColor=none;align=center;verticalAlign=middle;whiteSpace=wrap;rounded=0;fontSize=12;fontFamily=Calibri;" vertex="1" parent="1">
          <mxGeometry x="-1950" y="470.95000000000005" width="39" height="16" as="geometry" />
        </mxCell>
        <mxCell id="_OgBhQzUPCrYew9Ys8lD-214" value="False" style="text;html=1;strokeColor=none;fillColor=none;align=center;verticalAlign=middle;whiteSpace=wrap;rounded=0;fontSize=12;fontFamily=Calibri;" vertex="1" parent="1">
          <mxGeometry x="-1911" y="415.95000000000005" width="39" height="16" as="geometry" />
        </mxCell>
      </root>
    </mxGraphModel>
  </diagram>
</mxfile>
